<?xml version="1.0" encoding="UTF-8" standalone="no"?>
<svg
   xmlns:dc="http://purl.org/dc/elements/1.1/"
   xmlns:cc="http://creativecommons.org/ns#"
   xmlns:rdf="http://www.w3.org/1999/02/22-rdf-syntax-ns#"
   xmlns:svg="http://www.w3.org/2000/svg"
   xmlns="http://www.w3.org/2000/svg"
   xmlns:sodipodi="http://sodipodi.sourceforge.net/DTD/sodipodi-0.dtd"
   xmlns:inkscape="http://www.inkscape.org/namespaces/inkscape"
   width="1024"
   height="1024"
   viewBox="0 0 270.93333 270.93333"
   version="1.1"
   id="svg8"
   inkscape:version="1.0.1 (c497b03c, 2020-09-10)"
   sodipodi:docname="bulldog_orange.svg"
   inkscape:export-filename="C:\Users\matth\bulldogorange.png"
   inkscape:export-xdpi="96"
   inkscape:export-ydpi="96">
  <defs
     id="defs2">
    <marker
       style="overflow:visible"
       id="Arrow1Lstart"
       refX="0.0"
       refY="0.0"
       orient="auto"
       inkscape:stockid="Arrow1Lstart"
       inkscape:isstock="true">
      <path
         transform="scale(0.8) translate(12.5,0)"
         style="fill-rule:evenodd;stroke:#00acff;stroke-width:1pt;stroke-opacity:1;fill:#000000;fill-opacity:0"
         d="M 0.0,0.0 L 5.0,-5.0 L -12.5,0.0 L 5.0,5.0 L 0.0,0.0 z "
         id="path885" />
    </marker>
    <filter
       inkscape:collect="always"
       style="color-interpolation-filters:sRGB"
       id="filter1337"
       x="-0.068470333"
       width="1.1369407"
       y="-0.069782114"
       height="1.1395642">
      <feGaussianBlur
         inkscape:collect="always"
         stdDeviation="5.7748462"
         id="feGaussianBlur1339" />
    </filter>
  </defs>
  <sodipodi:namedview
     id="base"
     pagecolor="#ffffff"
     bordercolor="#666666"
     borderopacity="1.0"
     inkscape:pageopacity="0"
     inkscape:pageshadow="2"
     inkscape:zoom="0.98994949"
     inkscape:cx="236.86036"
     inkscape:cy="554.81076"
     inkscape:document-units="mm"
     inkscape:current-layer="layer1"
     inkscape:document-rotation="0"
     showgrid="false"
     units="px"
     inkscape:window-width="1792"
     inkscape:window-height="1007"
     inkscape:window-x="0"
     inkscape:window-y="0"
     inkscape:window-maximized="1" />
  <metadata
     id="metadata5">
    <rdf:RDF>
      <cc:Work
         rdf:about="">
        <dc:format>image/svg+xml</dc:format>
        <dc:type
           rdf:resource="http://purl.org/dc/dcmitype/StillImage" />
        <dc:title></dc:title>
      </cc:Work>
    </rdf:RDF>
  </metadata>
  <g
     inkscape:groupmode="layer"
     id="layer2"
     inkscape:label="BG"
     style="display:none">
    <rect
       style="display:inline;fill:#102040;fill-opacity:1;stroke:none;stroke-width:1.32292;stroke-linejoin:round;stroke-miterlimit:4;stroke-dasharray:none;stroke-opacity:1"
       id="rect1161"
       width="270.93329"
       height="270.93329"
       x="0"
       y="0" />
  </g>
  <g
     inkscape:label="Orange"
     inkscape:groupmode="layer"
     id="layer1"
     style="display:inline">
    <path
       style="opacity:1;fill:#000000;fill-opacity:0;stroke:#ff6a00;stroke-width:1.32292;stroke-linejoin:round;stroke-miterlimit:4;stroke-dasharray:none;stroke-opacity:1;filter:url(#filter1337)"
       d="m 101.34133,234.41794 c -3.491964,-0.65225 -7.490814,-2.73656 -13.520084,-7.04707 -5.19119,-3.71134 -8.15318,-6.15624 -11.35075,-9.36921 -8.92951,-8.97252 -11.96823,-12.98771 -13.46963,-17.79796 -0.89613,-2.87105 -0.87567,-4.47709 0.0958,-7.5238 0.42978,-1.34781 0.90577,-3.23829 1.05775,-4.20107 0.15199,-0.96278 1.66254,-6.32059 3.35678,-11.90625 1.69425,-5.58566 3.37043,-11.16777 3.72484,-12.4047 1.51847,-5.29955 1.25199,-4.8055 4.06351,-7.53369 1.42861,-1.38626 2.71324,-2.52047 2.85474,-2.52047 0.1415,0 0.42861,-0.0658 0.63803,-0.14611 0.30145,-0.11568 0.4179,0.26364 0.55901,1.82085 0.42846,4.72821 2.1777,8.51694 7.28914,15.78776 3.66474,5.21293 4.07289,5.7103 5.14257,6.26665 0.63484,0.33019 0.8157,0.33696 1.09459,0.041 0.27208,-0.28873 0.0217,-0.91929 -1.34894,-3.39725 -1.61374,-2.91744 -3.28415,-6.85695 -5.13433,-12.10883 -1.15462,-3.27748 -1.05476,-4.1038 0.86333,-7.14322 2.53506,-4.01707 8.08264,-15.44818 9.46802,-19.5094 l 0.72205,-2.11667 1.2853,-0.16014 c 4.821084,-0.60068 6.614294,-1.07214 9.884274,-2.59872 1.81902,-0.8492 3.62736,-1.61808 4.01855,-1.70861 0.6803,-0.15745 0.71842,-0.10989 0.87597,1.0931 0.40177,3.06756 1.38123,4.39256 3.89467,5.26861 1.11897,0.39001 2.19534,0.48701 5.40405,0.48701 3.56875,0 4.0677,-0.0551 4.56406,-0.50403 0.61402,-0.55534 0.71616,-1.08634 0.26286,-1.3665 -0.16194,-0.10008 -1.12459,-0.3955 -2.13924,-0.65649 -1.90906,-0.49106 -2.71359,-0.99323 -2.93252,-1.83041 -0.10571,-0.40425 0.0803,-0.51725 1.0981,-0.6671 0.67396,-0.0992 1.83519,-0.52734 2.5805,-0.95137 0.74532,-0.42404 1.52527,-0.77097 1.73322,-0.77097 0.20795,0 0.64839,0.56554 0.97875,1.25677 1.48703,3.11133 2.22445,4.04649 3.95587,5.01669 1.8224,1.02117 2.1635,1.55277 2.1635,3.37182 0,1.90805 -0.79232,5.50122 -1.47016,6.66719 -1.30915,2.25189 -5.99632,5.10287 -9.24547,5.62358 -1.43118,0.22936 -1.63141,0.20319 -2.03348,-0.26575 -0.70089,-0.81748 -1.09334,-3.28653 -0.92894,-5.84424 0.21166,-3.2928 -0.20359,-3.51231 -3.97907,-2.1034 -2.76953,1.03352 -5.5325,2.83565 -7.81628,5.09813 -2.66506,2.64021 -4.64302,7.06964 -5.09838,11.41729 -0.1513,1.44461 -0.2225,1.56983 -1.26459,2.22398 -3.07768,1.93195 -5.103774,4.30592 -6.957004,8.15148 -1.27319,2.64195 -1.95247,4.95798 -1.95247,6.65704 0,0.61851 0.41552,2.26978 0.92605,3.68014 1.22805,3.39254 1.20157,4.33733 -0.2574,9.18507 -1.94263,6.45484 -2.38573,8.83265 -2.37723,12.75691 0.009,4.12637 0.39862,5.34358 2.62576,8.20208 0.79366,1.01865 3.3771,4.47146 5.740984,7.67292 2.44458,3.31074 5.41709,6.97997 6.89318,8.50883 1.42737,1.47841 2.78537,3.14311 3.01778,3.69935 l 0.42256,1.01134 -1.59557,1.49973 c -1.27757,1.20083 -1.86604,1.55773 -2.95261,1.79076 -1.69842,0.36424 -3.07121,0.3383 -5.43204,-0.10266 z m 68.65938,-0.56626 c -2.67455,-0.51477 -4.77734,-1.8249 -5.43342,-3.38526 -0.32094,-0.7633 -0.27784,-0.84066 1.69838,-3.04763 2.51184,-2.80514 4.12797,-4.94509 9.23834,-12.23264 4.19584,-5.98339 5.74004,-8.75341 6.55202,-11.75311 0.45758,-1.69046 0.46014,-1.91077 0.0485,-4.18674 -1.00534,-5.559 -1.84292,-8.97582 -3.09865,-12.64064 -0.73276,-2.13854 -1.33229,-4.08348 -1.33229,-4.32209 0,-0.2386 0.41672,-1.27971 0.92604,-2.31356 0.85343,-1.73234 0.92604,-2.06914 0.92604,-4.29499 0,-2.82619 -0.42584,-4.47965 -1.87335,-7.2738 -1.69032,-3.26288 -3.72625,-5.4144 -6.5786,-6.95211 -1.60335,-0.86438 -2.0167,-1.64642 -2.89869,-5.48425 -0.31758,-1.38193 -0.9237,-3.22697 -1.34693,-4.1001 -2.25046,-4.64275 -8.54437,-9.45736 -13.16433,-10.07022 -1.23594,-0.16395 -1.37152,-0.1261 -1.7797,0.49686 -0.36129,0.55141 -0.38397,0.78246 -0.12439,1.26749 0.40448,0.75577 0.18197,4.71431 -0.34789,6.1892 -0.54272,1.5107 -1.25266,1.69243 -3.62793,0.92868 -2.55813,-0.82255 -7.12279,-3.83881 -8.33559,-5.50804 -1.36178,-1.87427 -1.75677,-4.17771 -1.2946,-7.5496 0.14975,-1.09253 0.29755,-1.30603 1.38906,-2.00651 1.87467,-1.20307 2.84714,-2.36251 3.65642,-4.35937 0.99961,-2.46651 1.28117,-2.60572 3.18431,-1.5745 0.83848,0.45433 2.09005,0.9066 2.78128,1.00505 0.69122,0.0985 1.25677,0.29003 1.25677,0.42572 0,0.47791 -2.14168,1.79075 -3.42259,2.09804 -1.3698,0.32861 -2.31357,1.08643 -1.99499,1.6019 0.4075,0.65935 2.00214,1.04794 4.2846,1.0441 2.85497,-0.005 5.21599,-0.53767 7.2971,-1.64689 1.83394,-0.97748 2.23844,-1.68284 2.48612,-4.33522 0.10277,-1.10048 0.26415,-1.66707 0.45123,-1.58421 6.80651,3.01474 8.49517,3.54375 12.39223,3.88214 1.77812,0.15439 3.24068,0.30324 3.25012,0.33076 0.55702,1.62317 1.81056,4.33176 2.90213,6.2708 0.77918,1.38414 2.36137,4.47976 3.51597,6.87917 1.99691,4.14985 4.75659,9.08022 5.8865,10.51667 0.75582,0.96086 0.6576,2.3516 -0.38438,5.44305 -0.49873,1.47969 -1.26896,3.88097 -1.71162,5.33618 -0.44265,1.45521 -1.29619,3.47927 -1.89674,4.49792 -2.35106,3.98782 -2.80434,5.27159 -1.97384,5.59029 0.61761,0.237 2.77542,-2.26791 5.72734,-6.64863 4.3817,-6.50255 7.11165,-12.80486 7.11165,-16.41782 0,-0.93837 0.0893,-1.70502 0.19844,-1.70365 0.10914,0.001 0.80459,0.35015 1.54544,0.77508 1.76609,1.01297 4.67526,4.1663 5.19159,5.62732 0.22076,0.62466 0.93928,2.74308 1.59671,4.70761 0.65743,1.96454 2.20755,6.48891 3.4447,10.05417 1.23716,3.56526 2.39189,7.19667 2.56607,8.06979 0.17418,0.87313 0.77315,2.95672 1.33106,4.63021 1.34825,4.04425 1.85307,6.62843 1.85307,9.48598 0,4.71872 -1.1643,6.8556 -7.88279,14.46753 -12.83097,14.53727 -24.70326,23.47441 -31.62457,23.80612 -1.04496,0.0501 -2.19758,0.0338 -2.56138,-0.0362 z m -49.55183,-1.71421 c -2.26684,-0.52449 -4.40539,-2.23531 -8.61418,-6.89124 -3.57323,-3.95285 -5.78999,-6.87845 -7.08634,-9.35231 -0.5338,-1.01864 -1.78665,-3.22547 -2.78413,-4.90405 -0.99747,-1.67858 -2.051694,-3.72944 -2.342724,-4.55745 -1.08539,-3.08812 -0.54971,-6.82886 1.979294,-13.82183 1.58868,-4.39287 1.50674,-4.25279 2.41989,-4.13657 1.93519,0.2463 6.97095,0.12255 8.30085,-0.20399 2.11853,-0.52018 5.24861,-2.07801 8.86354,-4.41138 6.50929,-4.20161 11.6502,-7.25997 12.94866,-7.70324 3.61811,-1.23517 7.35253,0.027 15.31216,5.17534 4.05979,2.62588 7.93681,4.57407 11.42652,5.7418 3.58024,1.19803 4.55791,1.3011 7.48408,0.78904 1.35127,-0.23646 2.578,-0.35505 2.72608,-0.26353 0.7706,0.47625 3.84947,9.64206 4.46533,13.2933 0.36133,2.14222 0.16318,3.42981 -0.94907,6.1671 -1.01241,2.49155 -6.07466,10.95562 -9.35677,15.64448 -2.11834,3.0263 -6.22195,7.16744 -8.32837,8.40452 -1.41683,0.83211 -1.77474,0.92605 -3.52821,0.92605 -1.79851,0 -2.00025,-0.0568 -2.57438,-0.72422 l -0.62294,-0.72421 0.93904,-1.39245 c 1.70885,-2.534 4.85058,-9.34874 4.85058,-10.52144 0,-0.25493 -0.16052,-0.59673 -0.35671,-0.75956 -0.46734,-0.38785 -0.74682,-0.0511 -2.68943,3.23997 -2.09458,3.54862 -4.77018,6.94807 -6.54834,8.31991 -1.35461,1.04507 -1.71751,1.18104 -4.47268,1.67574 -3.03193,0.54439 -4.12244,0.54425 -8.55777,-0.001 -3.6397,-0.44755 -5.07275,-1.6506 -9.68288,-8.12882 -1.90785,-2.681 -3.56028,-4.87449 -3.67206,-4.87449 -0.11179,0 -0.35461,0.18237 -0.5396,0.40527 -0.26116,0.31469 -0.26966,0.62785 -0.038,1.40107 0.43864,1.46405 2.78634,6.16721 3.93929,7.8916 0.55026,0.82299 1.2082,1.80537 1.4621,2.18306 0.2539,0.37769 0.46225,0.84161 0.46302,1.03094 0.003,0.78015 -3.12064,1.47951 -4.83585,1.08265 z M 61.168766,184.09983 c -0.097,-0.097 -0.17639,-0.37583 -0.17639,-0.6196 0,-0.24376 -0.53792,-2.35477 -1.19538,-4.69112 -1.64505,-5.84584 -7.27688,-19.5609 -10.94733,-26.65977 -1.99082,-3.85035 -2.41075,-5.41598 -2.40255,-8.95755 0.0143,-6.16304 0.71878,-9.93707 3.99482,-21.39999 0.57392,-2.00815 0.99314,-2.3572 3.45962,-2.88053 1.53476,-0.32564 3.25846,-1.125 5.50332,-2.55214 2.79168,-1.77477 3.97892,-3.00042 6.37668,-6.58298 4.0368,-6.03151 4.94955,-8.27531 6.06486,-14.909104 0.30583,-1.81901 0.68024,-4.02166 0.83203,-4.89479 0.19854,-1.14203 0.18153,-3.09389 -0.0606,-6.955837 -0.41675,-6.647127 -0.35998,-6.93542 1.60485,-8.14964 1.74288,-1.077058 4.15922,-1.469909 7.65005,-1.243748 1.8406,0.119247 2.34369,0.07069 2.61153,-0.252037 0.27717,-0.333973 0.17727,-0.535379 -0.60723,-1.224174 -0.51643,-0.45344 -1.44168,-1.077796 -2.0561,-1.387457 -1.98184,-0.998836 -4.24431,-2.763212 -6.29009,-4.905308 -2.36007,-2.471174 -3.42521,-3.962627 -4.55667,-6.380432 -0.74146,-1.584423 -0.84893,-2.121972 -0.97576,-4.880607 -0.11406,-2.481091 -0.23582,-3.193246 -0.60982,-3.566703 -0.41584,-0.415242 -0.53237,-0.424518 -1.05833,-0.08424 -0.32507,0.210312 -1.48785,0.818147 -2.58396,1.350743 -5.11539,2.485551 -8.19336,7.25937 -7.87536,12.214407 0.21621,3.369095 1.46673,5.492712 6.26758,10.643549 1.46508,1.571892 2.90176,3.349569 3.19261,3.950396 0.77161,1.593924 1.15076,4.752874 0.8172,6.80853 -0.15005,0.924718 -0.27371,2.313968 -0.27481,3.087208 -0.004,2.99111 -1.89515,10.703714 -3.42418,13.966574 -2.00295,4.2742 -4.4039,7.03847 -7.37488,8.49087 -1.36683,0.6682 -1.7629,0.73461 -4.28419,0.71835 -2.20002,-0.0142 -3.08722,-0.13853 -4.26349,-0.59753 -2.28272,-0.89077 -2.49703,-1.24786 -2.41094,-4.01722 0.0399,-1.28173 -0.10266,-4.57224 -0.31667,-7.31223 -0.3056,-3.91255 -0.58572,-5.748424 -1.30514,-8.553674 -1.11489,-4.34733 -2.00134,-6.333819 -5.19498,-11.641662 -4.01101,-6.666309 -5.47204,-10.372058 -4.93418,-12.51504 0.30949,-1.233093 1.88607,-2.695556 3.93629,-3.65135 10.44534,-4.869532 13.79072,-7.144686 16.03814,-10.907376 1.53163,-2.564294 2.15928,-4.467717 2.40464,-7.292348 0.33251,-3.82806 1.22296,-5.640106 3.28999,-6.695056 2.61717,-1.335725 6.71258,-0.761251 15.77509,2.212816 4.86918,1.597933 12.09845,5.217356 15.50055,7.760539 2.36427,1.767371 4.27995,2.742589 5.79551,2.950318 1.06446,0.145902 1.32798,0.0635 2.60119,-0.813395 2.100644,-1.446771 4.251024,-2.039104 7.985034,-2.199526 7.1771,-0.308343 14.71108,1.830326 20.96824,5.952254 5.79513,3.817554 8.10172,3.648932 14.53315,-1.062424 2.49939,-1.83094 2.98455,-2.069391 6.74687,-3.316012 2.2296,-0.738767 5.30398,-1.662049 6.83195,-2.051738 2.48875,-0.634727 3.09505,-0.69292 5.82083,-0.558691 3.66129,0.180297 5.26693,0.591402 7.42136,1.900153 3.09183,1.878184 4.32896,1.607428 8.85052,-1.936999 5.2021,-4.077906 10.89375,-6.851626 20.39378,-9.938538 4.26919,-1.387216 7.02479,-1.889448 9.05661,-1.650648 3.39382,0.398878 4.17783,1.592368 5.75174,8.755771 0.89602,4.0781 1.74663,5.679562 4.32512,8.143044 2.72199,2.600573 5.21804,4.094758 10.65627,6.379056 5.67874,2.385322 6.07664,2.592602 6.93496,3.612655 0.53307,0.633516 0.69297,1.111308 0.69297,2.070582 0,2.202767 -0.70472,4.079194 -4.24658,11.307116 -3.80404,7.76297 -4.84678,10.200019 -5.41785,12.662389 -0.38282,1.65069 -0.80412,7.264104 -1.09856,14.637264 l -0.16147,4.04334 -1.72337,0.96377 c -1.46307,0.8182 -2.02677,0.98011 -3.73204,1.07197 -5.82959,0.31401 -11.25509,-4.24797 -13.76911,-11.57764 -1.79673,-5.238374 -3.56686,-14.238479 -3.41027,-17.339279 0.1297,-2.568559 1.15903,-4.550008 4.32809,-8.331557 2.94705,-3.516635 4.46924,-5.929868 5.17917,-8.210891 0.61456,-1.974582 0.63374,-3.151621 0.082,-5.030152 -1.39239,-4.74041 -5.56798,-8.901051 -10.35127,-10.314207 -1.67604,-0.495162 -1.90804,-0.182443 -1.73578,2.339692 0.3139,4.596154 -2.0515,9.620202 -6.67555,14.178669 -1.05097,1.036068 -2.40614,2.181418 -3.01148,2.54522 -3.27629,1.968997 -4.39444,2.804948 -4.39444,3.285381 0,0.474774 0.24568,0.509844 3.83646,0.547669 3.99365,0.04207 6.35056,0.526227 7.90942,1.624766 l 0.63338,0.44635 -0.17488,4.257812 c -0.21892,5.329867 0.0879,8.624313 1.42522,15.301323 1.50042,7.491604 3.01039,10.979084 6.57629,15.188864 2.93345,3.46311 8.06966,6.7431 12.64808,8.07707 l 1.89773,0.55292 0.65795,1.48653 c 1.38034,3.11865 3.88008,12.41529 3.88198,14.43721 5.3e-4,0.58973 0.17707,2.14379 0.39226,3.45348 0.21518,1.30969 0.39333,3.52126 0.39587,4.9146 0.005,2.96387 -0.47459,4.61052 -2.60963,8.95257 -0.74498,1.51507 -1.3545,2.92434 -1.3545,3.13173 0,0.20738 -1.23348,3.31356 -2.74107,6.90262 -2.69878,6.42488 -5.97123,16.50621 -6.38399,19.66695 -0.0887,0.67932 -0.32302,1.36936 -0.52069,1.53341 -0.29068,0.24124 -0.41568,0.0359 -0.65371,-1.07405 -0.5795,-2.70211 -3.20534,-11.56048 -4.65566,-15.70605 -0.81238,-2.32209 -1.83963,-5.53678 -2.28278,-7.14375 -0.44316,-1.60698 -1.16788,-3.60649 -1.61049,-4.44336 -1.49759,-2.83157 -6.89558,-7.24618 -12.50474,-10.2267 -3.55233,-1.88758 -3.87335,-2.34818 -5.91892,-8.49234 -1.45533,-4.37129 -2.79153,-6.8226 -4.15381,-7.62033 -1.02841,-0.60223 -1.10505,-0.60699 -7.01888,-0.43633 l -5.97912,0.17255 -3.01672,-0.84702 c -4.15315,-1.16609 -6.25202,-2.18655 -6.70806,-3.26141 -0.19595,-0.46187 -0.56686,-1.34996 -0.82424,-1.97354 -0.57373,-1.39003 -2.11687,-2.82457 -3.91933,-3.64351 -1.50226,-0.68254 -6.26299,-1.43799 -9.10282,-1.44446 -2.5152,-0.006 -2.82689,-0.29223 -1.58229,-1.45437 0.93332,-0.8715 1.09102,-0.92283 2.83489,-0.92283 1.01562,0 3.0712,-0.23875 4.56794,-0.53055 1.49675,-0.29179 3.49527,-0.60339 4.44116,-0.69243 l 1.71979,-0.1619 0.32116,1.36816 c 0.81347,3.4653 3.77304,7.47906 6.92147,9.38689 5.56342,3.37121 12.08257,2.50546 17.36362,-2.30592 2.91097,-2.65208 4.32412,-5.93813 4.34646,-10.10696 0.0215,-4.0035 -1.43005,-8.01243 -3.62306,-10.00655 -2.32819,-2.11705 -2.70778,-2.52272 -2.70778,-2.89381 0,-0.41414 3.98191,-2.37849 5.74477,-2.834004 1.56139,-0.40344 2.31333,-0.15181 4.51001,1.509284 3.30408,2.49847 5.79746,5.58661 8.13859,10.07992 1.92664,3.69776 2.34149,4.23667 2.96062,3.84592 0.26078,-0.16459 0.45625,-0.52178 0.43439,-0.79375 -0.21895,-2.72386 -4.77179,-17.133274 -6.25894,-19.809094 -0.6033,-1.08552 -1.27988,-1.85716 -2.13968,-2.44028 -2.2391,-1.518563 -4.07307,-1.73728 -7.32224,-0.87324 -1.08156,0.28761 -2.34839,0.52574 -2.81518,0.52916 -1.49049,0.0109 -8.65491,1.35282 -9.24105,1.73083 -0.31062,0.20032 -0.99222,1.12859 -1.51467,2.06283 -2.19227,3.92014 -4.4953,6.217594 -9.4623,9.439374 -5.09391,3.3041 -13.23838,6.98028 -17.55393,7.92335 -1.183,0.25852 -2.40017,0.60344 -2.70482,0.76648 -1.26991,0.67964 -2.80845,3.11157 -3.13213,4.95088 -0.34888,1.98249 -0.67634,2.23666 -2.88157,2.23666 h -1.95094 l -0.96661,-2.49468 c -1.41151,-3.64291 -2.04067,-4.28389 -4.77661,-4.86636 -3.55066,-0.75592 -9.04181,-2.81072 -13.53861,-5.06617 -8.52121,-4.27398 -12.72767,-7.59078 -14.76989,-11.646094 -1.266764,-2.51545 -2.401614,-3.01932 -7.417544,-3.29336 -1.45923,-0.0797 -3.95954,-0.38241 -5.55625,-0.67263 -1.59672,-0.29022 -3.49843,-0.52832 -4.22603,-0.52911 -2.7018,-0.003 -5.32486,1.95719 -6.67424,4.9874 -0.36451,0.81856 -1.22465,3.690954 -1.91143,6.383084 -0.68677,2.69214 -1.71218,6.65424 -2.27869,8.80468 -0.7909,3.00225 -0.96327,4.01568 -0.74253,4.36562 0.68657,1.08843 1.49071,0.2341 2.8352,-3.01217 1.61664,-3.90335 7.03883,-11.04118 9.25979,-12.18968 1.63377,-0.84486 6.88585,0.1017 8.71741,1.57109 l 0.73884,0.59275 -1.82333,1.86088 c -2.30845,2.35596 -4.13276,5.86863 -4.57004,8.79949 -0.59525,3.98961 0.95927,8.381 4.08704,11.54556 1.95975,1.98281 3.73364,3.02438 7.03376,4.13002 2.14667,0.71921 2.784194,0.82155 4.624684,0.74248 1.80855,-0.0777 2.45035,-0.24235 4.19983,-1.07737 4.90524,-2.34127 8.1694,-6.17538 8.9833,-10.55186 0.32981,-1.77349 0.35805,-1.78541 2.75266,-1.1617 0.83804,0.21828 2.65955,0.39923 4.04781,0.40212 3.1158,0.006 6.00903,0.4061 6.8288,0.94323 0.63112,0.41353 1.02781,1.08325 0.78528,1.32578 -0.0741,0.0741 -1.30922,0.24896 -2.74466,0.38854 -4.10695,0.39934 -6.69027,0.98354 -8.72876,1.97395 -2.36847,1.15072 -3.38904,2.41807 -4.23558,5.25976 -0.43542,1.46162 -4.35402,3.23479 -9.48842,4.29353 -2.90599,0.59923 -3.3521,0.62815 -5.249144,0.34029 -1.20159,-0.18232 -2.87019,-0.2406 -3.96875,-0.1386 -4.55653,0.42304 -5.38487,1.11607 -6.68207,5.59058 -0.34687,1.19648 -1.08914,3.17282 -1.64947,4.39187 -0.56034,1.21905 -1.22058,2.82443 -1.4672,3.56751 -0.56055,1.68891 -0.99069,2.08638 -4.25148,3.92847 -2.87072,1.62175 -3.65526,2.21243 -7.86104,5.91866 -3.25871,2.87165 -3.9079,3.98191 -5.21488,8.9187 -0.42254,1.59602 -1.38777,4.92592 -2.14497,7.39978 -0.7572,2.47385 -2.07394,7.2194 -2.92609,10.54566 -0.85214,3.32627 -1.59607,6.09447 -1.65317,6.15157 -0.0571,0.0571 -0.18319,0.0244 -0.2802,-0.0726 z m 61.617814,-84.9763 c 2.18179,-1.0534 5.51915,-2.15772 8.08646,-2.67579 1.83481,-0.37025 2.63411,-0.88259 2.1471,-1.37625 -0.7038,-0.713404 -2.6036,-1.010184 -6.49212,-1.014174 l -3.91748,-0.004 -0.49245,-1.12448 c -0.27084,-0.61847 -0.81228,-2.31511 -1.20319,-3.77032 -0.73657,-2.74194 -2.39849,-6.417654 -3.39217,-7.502549 -0.9549,-1.042542 -1.63147,-1.157792 -3.98217,-0.678341 -1.65975,0.338527 -2.85002,0.396515 -5.31678,0.259035 -3.29871,-0.183848 -4.92127,-0.56262 -7.11305,-1.660482 -0.83369,-0.417603 -1.379674,-0.554882 -1.545864,-0.388695 -0.35697,0.356976 0.12681,1.184847 1.038124,1.776484 0.40609,0.263639 0.89504,0.698813 1.08656,0.967052 0.71537,1.001954 4.63418,2.437945 8.83605,3.237849 1.12229,0.213649 2.27983,0.516528 2.57233,0.673066 0.98079,0.524901 3.00749,5.410361 4.28452,10.328045 0.61827,2.38085 1.73774,3.96875 2.79798,3.96875 0.27691,0 1.44968,-0.45684 2.60615,-1.01519 z m 29.74568,-0.0431 c 0.11845,0 0.582,-0.57135 1.0301,-1.26965 0.57711,-0.89936 0.89262,-1.81884 1.08179,-3.152684 0.29062,-2.0491 1.69363,-6.24279 2.69155,-8.04519 0.81185,-1.466303 1.66631,-1.93529 4.72751,-2.594767 1.48146,-0.319153 3.38387,-0.969825 4.63317,-1.584655 2.44472,-1.203148 5.46261,-3.762304 5.00115,-4.240943 -0.21217,-0.220075 -0.62829,-0.122798 -1.5875,0.37111 -1.57626,0.811641 -4.6164,1.607238 -7.7195,2.020186 -1.78128,0.237043 -2.783,0.232667 -4.42386,-0.01932 -3.37511,-0.518318 -3.52476,-0.461147 -4.8353,1.847157 -1.70619,3.005193 -2.70218,5.615332 -3.11219,8.155952 -0.49721,3.08101 -0.67861,3.22052 -4.19101,3.22313 -3.14723,0.002 -5.86829,0.39152 -6.74813,0.96514 -0.56687,0.369574 -0.58699,0.446934 -0.21339,0.820534 0.22687,0.22687 1.10383,0.50859 1.94879,0.62603 0.84497,0.11744 2.99451,0.75443 4.77674,1.41554 3.12034,1.15745 5.63363,1.77392 6.37235,1.56303 0.19381,-0.0553 0.44928,-0.1006 0.56773,-0.1006 z m -45.50239,83.46698 c -5.18111,-1.60604 -7.549184,-6.28797 -5.5312,-10.93578 0.83764,-1.92924 3.58915,-5.59162 4.20093,-5.59162 0.14148,0 0.5137,0.59618 0.82716,1.32484 0.95787,2.22663 3.38885,3.87223 6.70374,4.53795 2.01146,0.40396 3.47684,0.1201 9.74782,-1.88822 3.56076,-1.14035 6.13127,-1.77881 9.07354,-2.25367 4.72725,-0.76295 6.95492,-0.82123 9.37385,-0.24523 0.94588,0.22523 3.86291,0.87647 6.48229,1.4472 2.61937,0.57072 5.65547,1.28472 6.74687,1.58665 2.80656,0.77643 6.33551,0.78281 8.07217,0.0146 1.92441,-0.85126 2.88587,-1.69214 4.12427,-3.60705 0.61424,-0.94979 1.1897,-1.69352 1.27879,-1.65272 0.0891,0.0408 0.95258,0.92143 1.91887,1.95695 2.2815,2.44498 2.91278,3.69705 3.06887,6.08674 0.17782,2.72225 -0.41432,4.31897 -2.30156,6.20621 -4.22266,4.22266 -9.65818,3.52158 -22.46218,-2.89721 -8.16874,-4.09509 -10.5284,-4.63425 -14.60131,-3.33627 -2.97578,0.94834 -5.08206,1.91788 -8.59896,3.95819 -3.25407,1.88782 -8.8891,4.34798 -11.81857,5.15977 -2.2132,0.61331 -4.58572,0.66173 -6.30539,0.12866 z m 6.13846,-15.38219 c -2.80338,-1.38161 -4.2668,-5.65151 -3.38224,-9.86851 0.71679,-3.41712 2.19755,-5.65418 5.41564,-8.18166 1.37791,-1.0822 1.4435,-1.01529 1.89115,1.92918 0.23593,1.55187 0.71988,3.00996 1.75338,5.28279 2.48507,5.46511 2.7036,7.21961 1.12336,9.01939 -1.72068,1.95975 -4.82879,2.79092 -6.80129,1.81881 z m 42.57233,-0.90868 c -1.12364,-0.56149 -1.86044,-1.14799 -2.32605,-1.85158 -0.61499,-0.92932 -0.66944,-1.21728 -0.55813,-2.95176 0.10267,-1.59981 0.38141,-2.52018 1.66286,-5.49061 1.4932,-3.46125 1.64856,-4.09217 1.97097,-8.00394 0.0371,-0.45064 2.07813,0.699 3.2036,1.8045 3.34681,3.28745 5.0452,9.15339 3.83253,13.23689 -0.65373,2.20132 -3.06947,4.0783 -5.24894,4.0783 -0.49075,0 -1.63233,-0.36981 -2.53684,-0.8218 z m -31.24829,-0.97177 c 0,-0.51347 1.59428,-3.92069 1.9365,-4.1386 0.28123,-0.17907 0.81349,0.13113 2.00859,1.1706 l 1.62599,1.41424 0.72019,-0.52512 c 0.39611,-0.28881 0.97032,-1.03904 1.27603,-1.66716 0.47951,-0.98521 1.32511,-1.84568 1.53525,-1.56224 0.0369,0.0497 0.38563,0.51903 0.77505,1.04291 0.38942,0.52389 1.19863,1.17375 1.79825,1.44415 l 1.09021,0.49161 1.28147,-1.44414 c 0.7048,-0.79427 1.28525,-1.53343 1.28988,-1.64257 0.005,-0.10914 0.15725,-0.1967 0.33916,-0.19456 0.1819,0.002 0.62992,0.62721 0.9956,1.38906 0.47248,0.98436 0.94849,1.53758 1.64501,1.91182 l 0.98014,0.52664 1.28139,-1.38653 c 0.70476,-0.7626 1.47119,-1.38654 1.70316,-1.38654 0.48028,0 1.9962,2.52626 2.23629,3.72674 l 0.15849,0.79243 -2.87947,-0.16531 c -1.58371,-0.0909 -4.07009,-0.27055 -5.5253,-0.39917 -2.6065,-0.23038 -7.61864,-0.004 -12.18457,0.54942 -2.56896,0.31158 -4.08731,0.33102 -4.08731,0.0523 z M 98.035466,120.61689 c -2.62307,-0.95612 -4.84821,-3.07721 -6.18256,-5.89344 -0.72814,-1.53677 -0.83032,-2.02921 -0.83032,-4.0014 0,-1.88645 0.11429,-2.49282 0.7091,-3.76186 1.02426,-2.18532 2.8433,-4.03354 4.39306,-4.46353 1.36746,-0.37941 2.38198,-0.35294 2.89834,0.0756 0.53005,0.4399 0.41758,0.57387 -1.04519,1.24493 -1.95683,0.8977 -3.962,2.99176 -4.66566,4.87247 -1.16628,3.11714 -0.48336,5.83055 2.06812,8.21715 1.68451,1.57567 4.43295,2.95313 5.405374,2.70906 1.1296,-0.28351 1.13795,-0.88115 0.0265,-1.89917 -0.934854,-0.85629 -0.986454,-0.98464 -0.857134,-2.13195 0.189304,-1.67944 1.130284,-2.61496 2.591694,-2.57664 1.12538,0.0295 2.21187,0.77905 2.51538,1.7353 0.0869,0.27393 -0.0486,1.15508 -0.30116,1.9581 -0.42238,1.34286 -0.42501,1.49426 -0.0327,1.88652 0.39227,0.39226 0.52827,0.36371 1.69477,-0.35581 1.5561,-0.95983 2.77578,-2.88527 3.42559,-5.40779 0.50278,-1.95174 1.02455,-2.19728 0.8204,-0.38608 -0.32871,2.91635 -2.72507,6.00669 -5.85117,7.54567 -2.11652,1.04195 -4.937854,1.30521 -6.782414,0.63287 z m 70.384154,-1.32315 c -2.66881,-0.71718 -5.01668,-2.49547 -6.10102,-4.62095 -0.50096,-0.98195 -1.05477,-4.4799 -0.70929,-4.4799 0.0835,0 0.28746,0.6535 0.45328,1.45222 0.52919,2.54913 3.51456,6.22069 5.05809,6.22069 0.69645,0 1.12618,-0.91201 0.62551,-1.32753 -0.40279,-0.33428 -0.5295,-2.23097 -0.22495,-3.36733 0.18264,-0.68147 1.62955,-1.22552 2.88112,-1.08332 0.63124,0.0717 0.90798,0.32565 1.38428,1.27018 0.81032,1.60691 0.75182,2.21658 -0.32728,3.41102 -0.91218,1.00967 -0.9167,1.02654 -0.40029,1.49389 0.5025,0.45476 0.59517,0.44996 2.44395,-0.12645 1.55388,-0.48447 2.15612,-0.83973 3.14681,-1.85633 2.37285,-2.4349 3.15079,-6.46015 1.82989,-9.46827 -0.75778,-1.72569 -2.65963,-3.4932 -4.64345,-4.31545 -0.79987,-0.33153 -1.45432,-0.68082 -1.45432,-0.77621 0,-0.48741 1.3863,-0.76181 2.64385,-0.52332 3.57915,0.67877 5.54815,3.30134 5.76856,7.6833 0.19464,3.86962 -1.12486,7.31101 -3.49687,9.12023 -2.04589,1.56047 -5.83177,2.11209 -8.87787,1.29353 z"
       id="path1199" />
    <path
       style="fill:none;fill-opacity:0;stroke:#ff6a00;stroke-width:1.32292;stroke-linejoin:round;stroke-miterlimit:4;stroke-dasharray:none;stroke-opacity:1"
       d="m 101.3413,234.41799 c -3.49196,-0.65225 -7.49081,-2.73656 -13.52008,-7.04707 -5.19119,-3.71134 -8.15318,-6.15624 -11.35075,-9.36921 -8.92952,-8.97252 -11.968244,-12.98771 -13.469644,-17.79796 -0.89613,-2.87105 -0.87567,-4.47709 0.0958,-7.5238 0.42978,-1.34781 0.90577,-3.23829 1.05775,-4.20107 0.15199,-0.96278 1.66254,-6.32059 3.356784,-11.90625 1.69425,-5.58566 3.37043,-11.16777 3.72484,-12.4047 1.51847,-5.29955 1.25199,-4.8055 4.06352,-7.53369 1.42861,-1.38626 2.71324,-2.52047 2.85474,-2.52047 0.1415,0 0.42861,-0.0658 0.63803,-0.14611 0.30145,-0.11568 0.4179,0.26364 0.55901,1.82085 0.42846,4.72821 2.1777,8.51694 7.28914,15.78776 3.66474,5.21293 4.07289,5.7103 5.14257,6.26665 0.63484,0.33019 0.8157,0.33696 1.09459,0.041 0.27208,-0.28873 0.0217,-0.91929 -1.34894,-3.39725 -1.61374,-2.91744 -3.28415,-6.85695 -5.13433,-12.10883 -1.15462,-3.27748 -1.05476,-4.1038 0.86333,-7.14322 2.53506,-4.01707 8.08264,-15.44818 9.46802,-19.5094 l 0.72205,-2.11667 1.2853,-0.16014 c 4.82108,-0.60068 6.61429,-1.07214 9.88427,-2.59872 1.81902,-0.8492 3.62736,-1.61808 4.01855,-1.70861 0.6803,-0.15745 0.71842,-0.10989 0.87597,1.0931 0.40177,3.06756 1.38123,4.39256 3.89467,5.26861 1.11897,0.39001 2.19534,0.48701 5.40405,0.48701 3.56875,0 4.0677,-0.0551 4.56406,-0.50403 0.61402,-0.55534 0.71616,-1.08634 0.26286,-1.3665 -0.16194,-0.10008 -1.12459,-0.3955 -2.13924,-0.65649 -1.90906,-0.49106 -2.71359,-0.99323 -2.93252,-1.83041 -0.10571,-0.40425 0.0803,-0.51725 1.0981,-0.6671 0.67396,-0.0992 1.83519,-0.52734 2.5805,-0.95137 0.74532,-0.42404 1.52527,-0.77097 1.73322,-0.77097 0.20795,0 0.64839,0.56554 0.97875,1.25677 1.48703,3.11133 2.22445,4.04649 3.95587,5.01669 1.8224,1.02117 2.1635,1.55277 2.1635,3.37182 0,1.90805 -0.79232,5.50122 -1.47016,6.66719 -1.30915,2.25189 -5.99632,5.10287 -9.24547,5.62358 -1.43118,0.22936 -1.63141,0.20319 -2.03348,-0.26575 -0.70089,-0.81748 -1.09334,-3.28653 -0.92894,-5.84424 0.21166,-3.2928 -0.20359,-3.51231 -3.97907,-2.1034 -2.76953,1.03352 -5.5325,2.83565 -7.81628,5.09813 -2.66506,2.64021 -4.64302,7.06964 -5.09838,11.41729 -0.1513,1.44461 -0.2225,1.56983 -1.26459,2.22398 -3.07768,1.93195 -5.10377,4.30592 -6.957,8.15148 -1.27319,2.64195 -1.95247,4.95798 -1.95247,6.65704 0,0.61851 0.41552,2.26978 0.92605,3.68014 1.22805,3.39254 1.20157,4.33733 -0.2574,9.18507 -1.94263,6.45484 -2.38573,8.83265 -2.37723,12.75691 0.009,4.12637 0.39862,5.34358 2.62576,8.20208 0.79366,1.01865 3.3771,4.47146 5.74098,7.67292 2.44458,3.31074 5.41709,6.97997 6.89318,8.50883 1.42737,1.47841 2.78537,3.14311 3.01778,3.69935 l 0.42256,1.01134 -1.59557,1.49973 c -1.27757,1.20083 -1.86604,1.55773 -2.95261,1.79076 -1.69842,0.36424 -3.07121,0.3383 -5.43204,-0.10266 z m 68.65938,-0.56626 c -2.67455,-0.51477 -4.77734,-1.8249 -5.43342,-3.38526 -0.32094,-0.7633 -0.27784,-0.84066 1.69838,-3.04763 2.51184,-2.80514 4.12797,-4.94509 9.23834,-12.23264 4.19584,-5.98339 5.74004,-8.75341 6.55202,-11.75311 0.45758,-1.69046 0.46014,-1.91077 0.0485,-4.18674 -1.00534,-5.559 -1.84292,-8.97582 -3.09865,-12.64064 -0.73276,-2.13854 -1.33229,-4.08348 -1.33229,-4.32209 0,-0.2386 0.41672,-1.27971 0.92604,-2.31356 0.85343,-1.73234 0.92604,-2.06914 0.92604,-4.29499 0,-2.82619 -0.42584,-4.47965 -1.87335,-7.2738 -1.69032,-3.26288 -3.72625,-5.4144 -6.5786,-6.95211 -1.60335,-0.86438 -2.0167,-1.64642 -2.89869,-5.48425 -0.31758,-1.38193 -0.9237,-3.22697 -1.34693,-4.1001 -2.25046,-4.64275 -8.54437,-9.45736 -13.16433,-10.07022 -1.23594,-0.16395 -1.37152,-0.1261 -1.7797,0.49686 -0.36129,0.55141 -0.38397,0.78246 -0.12439,1.26749 0.40448,0.75577 0.18197,4.71431 -0.34789,6.1892 -0.54272,1.5107 -1.25266,1.69243 -3.62793,0.92868 -2.55813,-0.82255 -7.12279,-3.83881 -8.33559,-5.50804 -1.36178,-1.87427 -1.75677,-4.17771 -1.2946,-7.5496 0.14975,-1.09253 0.29755,-1.30603 1.38906,-2.00651 1.87467,-1.20307 2.84714,-2.36251 3.65642,-4.35937 0.99961,-2.46651 1.28117,-2.60572 3.18431,-1.5745 0.83848,0.45433 2.09005,0.9066 2.78128,1.00505 0.69122,0.0985 1.25677,0.29003 1.25677,0.42572 0,0.47791 -2.14168,1.79075 -3.42259,2.09804 -1.3698,0.32861 -2.31357,1.08643 -1.99499,1.6019 0.4075,0.65935 2.00214,1.04794 4.2846,1.0441 2.85497,-0.005 5.21599,-0.53767 7.2971,-1.64689 1.83394,-0.97748 2.23844,-1.68284 2.48612,-4.33522 0.10277,-1.10048 0.26415,-1.66707 0.45123,-1.58421 6.80651,3.01474 8.49517,3.54375 12.39223,3.88214 1.77812,0.15439 3.24068,0.30324 3.25012,0.33076 0.55702,1.62317 1.81056,4.33176 2.90213,6.2708 0.77918,1.38414 2.36137,4.47976 3.51597,6.87917 1.99691,4.14985 4.75659,9.08022 5.8865,10.51667 0.75582,0.96086 0.6576,2.3516 -0.38438,5.44305 -0.49873,1.47969 -1.26896,3.88097 -1.71162,5.33618 -0.44265,1.45521 -1.29619,3.47927 -1.89674,4.49792 -2.35106,3.98782 -2.80434,5.27159 -1.97384,5.59029 0.61761,0.237 2.77542,-2.26791 5.72734,-6.64863 4.3817,-6.50255 7.11165,-12.80486 7.11165,-16.41782 0,-0.93837 0.0893,-1.70502 0.19844,-1.70365 0.10914,0.001 0.80459,0.35015 1.54544,0.77508 1.76609,1.01297 4.67526,4.1663 5.19159,5.62732 0.22076,0.62466 0.93928,2.74308 1.59671,4.70761 0.65743,1.96454 2.20755,6.48891 3.4447,10.05417 1.23716,3.56526 2.39189,7.19667 2.56607,8.06979 0.17418,0.87313 0.77315,2.95672 1.33106,4.63021 1.34825,4.04425 1.85307,6.62843 1.85307,9.48598 0,4.71872 -1.1643,6.8556 -7.88279,14.46753 -12.83097,14.53727 -24.70326,23.47441 -31.62457,23.80612 -1.04496,0.0501 -2.19758,0.0338 -2.56138,-0.0362 z m -49.55183,-1.71421 c -2.26684,-0.52449 -4.40539,-2.23531 -8.61418,-6.89124 -3.57323,-3.95285 -5.78999,-6.87845 -7.08634,-9.35231 -0.5338,-1.01864 -1.78665,-3.22547 -2.78413,-4.90405 -0.99747,-1.67858 -2.05169,-3.72944 -2.34272,-4.55745 -1.08539,-3.08812 -0.54971,-6.82886 1.97929,-13.82183 1.58868,-4.39287 1.50674,-4.25279 2.41989,-4.13657 1.93519,0.2463 6.97095,0.12255 8.30085,-0.20399 2.11853,-0.52018 5.24861,-2.07801 8.86354,-4.41138 6.50929,-4.20161 11.6502,-7.25997 12.94866,-7.70324 3.61811,-1.23517 7.35253,0.027 15.31216,5.17534 4.05979,2.62588 7.93681,4.57407 11.42652,5.7418 3.58024,1.19803 4.55791,1.3011 7.48408,0.78904 1.35127,-0.23646 2.578,-0.35505 2.72608,-0.26353 0.7706,0.47625 3.84947,9.64206 4.46533,13.2933 0.36133,2.14222 0.16318,3.42981 -0.94907,6.1671 -1.01241,2.49155 -6.07466,10.95562 -9.35677,15.64448 -2.11834,3.0263 -6.22195,7.16744 -8.32837,8.40452 -1.41683,0.83211 -1.77474,0.92605 -3.52821,0.92605 -1.79851,0 -2.00025,-0.0568 -2.57438,-0.72422 l -0.62294,-0.72421 0.93904,-1.39245 c 1.70885,-2.534 4.85058,-9.34874 4.85058,-10.52144 0,-0.25493 -0.16052,-0.59673 -0.35671,-0.75956 -0.46734,-0.38785 -0.74682,-0.0511 -2.68943,3.23997 -2.09458,3.54862 -4.77018,6.94807 -6.54834,8.31991 -1.35461,1.04507 -1.71751,1.18104 -4.47268,1.67574 -3.03193,0.54439 -4.12244,0.54425 -8.55777,-0.001 -3.6397,-0.44755 -5.07275,-1.6506 -9.68288,-8.12882 -1.90785,-2.681 -3.56028,-4.87449 -3.67206,-4.87449 -0.11179,0 -0.35461,0.18237 -0.5396,0.40527 -0.26116,0.31469 -0.26966,0.62785 -0.038,1.40107 0.43864,1.46405 2.78634,6.16721 3.93929,7.8916 0.55026,0.82299 1.2082,1.80537 1.4621,2.18306 0.2539,0.37769 0.46225,0.84161 0.46302,1.03094 0.003,0.78015 -3.12064,1.47951 -4.83585,1.08265 z M 61.168726,184.09988 c -0.097,-0.097 -0.17639,-0.37583 -0.17639,-0.6196 0,-0.24376 -0.53792,-2.35477 -1.19538,-4.69112 -1.64505,-5.84584 -7.27688,-19.5609 -10.94733,-26.65977 -1.99082,-3.85035 -2.41075,-5.41598 -2.40255,-8.95755 0.0143,-6.16304 0.71878,-9.93707 3.99482,-21.39999 0.57392,-2.00815 0.99314,-2.3572 3.45962,-2.88053 1.53476,-0.32564 3.25846,-1.125 5.50332,-2.55214 2.79168,-1.77477 3.97892,-3.00042 6.37668,-6.58298 4.036804,-6.03151 4.949554,-8.27531 6.064864,-14.9091 0.30583,-1.81901 0.68024,-4.02166 0.83203,-4.89479 0.19854,-1.14203 0.18153,-3.09389 -0.0606,-6.95584 -0.41675,-6.64713 -0.35998,-6.93542 1.60485,-8.14964 1.74289,-1.07706 4.15923,-1.46991 7.65006,-1.24375 1.8406,0.11925 2.34369,0.0707 2.61153,-0.25203 0.27717,-0.33398 0.17727,-0.53538 -0.60723,-1.22418 -0.51643,-0.45344 -1.44168,-1.07779 -2.0561,-1.38746 -1.98184,-0.99883 -4.24431,-2.76321 -6.29009,-4.9053 -2.36008,-2.47118 -3.42522,-3.96263 -4.55668,-6.380444 -0.74146,-1.58442 -0.84893,-2.12197 -0.97576,-4.8806 -0.11406,-2.48109 -0.23582,-3.19325 -0.60982,-3.56671 -0.41584,-0.41524 -0.53237,-0.42451 -1.05833,-0.0842 -0.32507,0.21032 -1.48785,0.81815 -2.583964,1.35075 -5.11539,2.48555 -8.19336,7.25937 -7.87536,12.214404 0.21621,3.3691 1.46673,5.49272 6.26758,10.64355 1.46508,1.5719 2.901764,3.34957 3.192614,3.9504 0.77161,1.59392 1.15076,4.75287 0.8172,6.80853 -0.15005,0.92472 -0.27371,2.31397 -0.27481,3.08721 -0.004,2.99111 -1.89515,10.70371 -3.424184,13.96657 -2.00295,4.2742 -4.4039,7.03847 -7.37488,8.49087 -1.36683,0.6682 -1.7629,0.73461 -4.28419,0.71835 -2.20002,-0.0142 -3.08722,-0.13853 -4.26349,-0.59753 -2.28272,-0.89077 -2.49703,-1.24786 -2.41094,-4.01722 0.0399,-1.28173 -0.10266,-4.57224 -0.31667,-7.31223 -0.3056,-3.91255 -0.58572,-5.74842 -1.30514,-8.55367 -1.11489,-4.34733 -2.00134,-6.33382 -5.19498,-11.64166 -4.01101,-6.66631 -5.47204,-10.37206 -4.93418,-12.51504 0.30949,-1.2331 1.88607,-2.69556 3.93629,-3.65135 10.44534,-4.869544 13.79072,-7.144694 16.03814,-10.907384 1.53163,-2.56429 2.15928,-4.46772 2.40464,-7.29235 0.33251,-3.828058 1.22296,-5.640104 3.28999,-6.695054 2.61717,-1.335725 6.712584,-0.761251 15.775104,2.212816 4.86918,1.597933 12.09845,5.217358 15.50055,7.760538 2.36427,1.76737 4.27995,2.74259 5.79551,2.95032 1.06446,0.1459 1.32798,0.0635 2.60119,-0.8134 2.10064,-1.44677 4.25102,-2.0391 7.98503,-2.19952 7.1771,-0.30835 14.71108,1.83032 20.96824,5.95225 5.79513,3.81756 8.10172,3.64893 14.53315,-1.06242 2.49939,-1.83094 2.98455,-2.06939 6.74687,-3.31601 2.2296,-0.73877 5.30398,-1.66205 6.83195,-2.05174 2.48875,-0.63473 3.09505,-0.69292 5.82083,-0.55869 3.66129,0.18029 5.26693,0.5914 7.42136,1.90015 3.09183,1.87818 4.32896,1.60743 8.85052,-1.937 5.2021,-4.077905 10.89375,-6.851625 20.39378,-9.938537 4.26919,-1.387216 7.02479,-1.889448 9.05661,-1.650648 3.39382,0.398878 4.17783,1.592368 5.75174,8.755775 0.89602,4.0781 1.74663,5.67956 4.32512,8.14304 2.72199,2.60057 5.21804,4.09476 10.65627,6.37906 5.67874,2.385324 6.07664,2.592604 6.93496,3.612654 0.53307,0.63352 0.69297,1.11131 0.69297,2.07058 0,2.20277 -0.70472,4.0792 -4.24658,11.30712 -3.80404,7.76297 -4.84678,10.20002 -5.41785,12.66239 -0.38282,1.65069 -0.80412,7.2641 -1.09856,14.63726 l -0.16147,4.04334 -1.72337,0.96377 c -1.46307,0.8182 -2.02677,0.98011 -3.73204,1.07197 -5.82959,0.31401 -11.25509,-4.24797 -13.76911,-11.57764 -1.79673,-5.23837 -3.56686,-14.23848 -3.41027,-17.33928 0.1297,-2.56856 1.15903,-4.55001 4.32809,-8.33155 2.94705,-3.51664 4.46924,-5.92987 5.17917,-8.2109 0.61456,-1.97458 0.63374,-3.15162 0.082,-5.030154 -1.39239,-4.74041 -5.56798,-8.90105 -10.35127,-10.3142 -1.67604,-0.49517 -1.90804,-0.18245 -1.73578,2.33969 0.3139,4.59615 -2.0515,9.620204 -6.67555,14.178674 -1.05097,1.03606 -2.40614,2.18141 -3.01148,2.54522 -3.27629,1.96899 -4.39444,2.80494 -4.39444,3.28538 0,0.47477 0.24568,0.50984 3.83646,0.54767 3.99365,0.0421 6.35056,0.52622 7.90942,1.62476 l 0.63338,0.44635 -0.17488,4.25781 c -0.21892,5.32987 0.0879,8.62432 1.42522,15.30133 1.50042,7.4916 3.01039,10.97908 6.57629,15.18886 2.93345,3.46311 8.06966,6.7431 12.64808,8.07707 l 1.89773,0.55292 0.65795,1.48653 c 1.38034,3.11865 3.88008,12.41529 3.88198,14.43721 5.3e-4,0.58973 0.17707,2.14379 0.39226,3.45348 0.21518,1.30969 0.39333,3.52126 0.39587,4.9146 0.005,2.96387 -0.47459,4.61052 -2.60963,8.95257 -0.74498,1.51507 -1.3545,2.92434 -1.3545,3.13173 0,0.20738 -1.23348,3.31356 -2.74107,6.90262 -2.69878,6.42488 -5.97123,16.50621 -6.38399,19.66695 -0.0887,0.67932 -0.32302,1.36936 -0.52069,1.53341 -0.29068,0.24124 -0.41568,0.0359 -0.65371,-1.07405 -0.5795,-2.70211 -3.20534,-11.56048 -4.65566,-15.70605 -0.81238,-2.32209 -1.83963,-5.53678 -2.28278,-7.14375 -0.44316,-1.60698 -1.16788,-3.60649 -1.61049,-4.44336 -1.49759,-2.83157 -6.89558,-7.24618 -12.50474,-10.2267 -3.55233,-1.88758 -3.87335,-2.34818 -5.91892,-8.49234 -1.45533,-4.37129 -2.79153,-6.8226 -4.15381,-7.62033 -1.02841,-0.60223 -1.10505,-0.60699 -7.01888,-0.43633 l -5.97912,0.17255 -3.01672,-0.84702 c -4.15315,-1.16609 -6.25202,-2.18655 -6.70806,-3.26141 -0.19595,-0.46187 -0.56686,-1.34996 -0.82424,-1.97354 -0.57373,-1.39003 -2.11687,-2.82457 -3.91933,-3.64351 -1.50226,-0.68254 -6.26299,-1.43799 -9.10282,-1.44446 -2.5152,-0.006 -2.82689,-0.29223 -1.58229,-1.45437 0.93332,-0.8715 1.09102,-0.92283 2.83489,-0.92283 1.01562,0 3.0712,-0.23875 4.56794,-0.53055 1.49675,-0.29179 3.49527,-0.60339 4.44116,-0.69243 l 1.71979,-0.1619 0.32116,1.36816 c 0.81347,3.4653 3.77304,7.47906 6.92147,9.38689 5.56342,3.37121 12.08257,2.50546 17.36362,-2.30592 2.91097,-2.65208 4.32412,-5.93813 4.34646,-10.10696 0.0215,-4.0035 -1.43005,-8.01243 -3.62306,-10.00655 -2.32819,-2.11705 -2.70778,-2.52272 -2.70778,-2.89381 0,-0.41414 3.98191,-2.37849 5.74477,-2.834 1.56139,-0.40344 2.31333,-0.15181 4.51001,1.50928 3.30408,2.49847 5.79746,5.58661 8.13859,10.07992 1.92664,3.69776 2.34149,4.23667 2.96062,3.84592 0.26078,-0.16459 0.45625,-0.52178 0.43439,-0.79375 -0.21895,-2.72386 -4.77179,-17.13327 -6.25894,-19.80909 -0.6033,-1.08552 -1.27988,-1.85716 -2.13968,-2.44028 -2.2391,-1.51857 -4.07307,-1.73728 -7.32224,-0.87324 -1.08156,0.28761 -2.34839,0.52574 -2.81518,0.52916 -1.49049,0.0109 -8.65491,1.35282 -9.24105,1.73083 -0.31062,0.20032 -0.99222,1.12859 -1.51467,2.06283 -2.19227,3.92014 -4.4953,6.21759 -9.4623,9.43937 -5.09391,3.3041 -13.23838,6.98028 -17.55393,7.92335 -1.183,0.25852 -2.40017,0.60344 -2.70482,0.76648 -1.26991,0.67964 -2.80845,3.11157 -3.13213,4.95088 -0.34888,1.98249 -0.67634,2.23666 -2.88157,2.23666 h -1.95094 l -0.96661,-2.49468 c -1.41151,-3.64291 -2.04067,-4.28389 -4.77661,-4.86636 -3.55066,-0.75592 -9.04181,-2.81072 -13.53861,-5.06617 -8.52121,-4.27398 -12.72767,-7.59078 -14.76989,-11.64609 -1.26676,-2.51545 -2.40161,-3.01932 -7.41754,-3.29336 -1.45923,-0.0797 -3.95954,-0.38241 -5.55625,-0.67263 -1.59672,-0.29022 -3.49843,-0.52832 -4.22603,-0.52911 -2.7018,-0.003 -5.32486,1.95719 -6.67424,4.9874 -0.36451,0.81856 -1.22465,3.69095 -1.91144,6.38308 -0.68677,2.69214 -1.71218,6.65424 -2.27869,8.80468 -0.7909,3.00225 -0.96327,4.01568 -0.74253,4.36562 0.68657,1.08843 1.49071,0.2341 2.8352,-3.01217 1.61665,-3.90335 7.03884,-11.04118 9.2598,-12.18968 1.63377,-0.84486 6.88585,0.1017 8.71741,1.57109 l 0.73884,0.59275 -1.82333,1.86088 c -2.30845,2.35596 -4.13276,5.86863 -4.57004,8.79949 -0.59525,3.98961 0.95927,8.381 4.08704,11.54556 1.95975,1.98281 3.73364,3.02438 7.03376,4.13002 2.14667,0.71921 2.78419,0.82155 4.62468,0.74248 1.80855,-0.0777 2.45035,-0.24235 4.19983,-1.07737 4.90524,-2.34127 8.1694,-6.17538 8.9833,-10.55186 0.32981,-1.77349 0.35805,-1.78541 2.75266,-1.1617 0.83804,0.21828 2.65955,0.39923 4.04781,0.40212 3.1158,0.006 6.00903,0.4061 6.8288,0.94323 0.63112,0.41353 1.02781,1.08325 0.78528,1.32578 -0.0741,0.0741 -1.30922,0.24896 -2.74466,0.38854 -4.10695,0.39934 -6.69027,0.98354 -8.72876,1.97395 -2.36847,1.15072 -3.38904,2.41807 -4.23558,5.25976 -0.43542,1.46162 -4.35402,3.23479 -9.48842,4.29353 -2.90599,0.59923 -3.3521,0.62815 -5.24914,0.34029 -1.20159,-0.18232 -2.87019,-0.2406 -3.96875,-0.1386 -4.55653,0.42304 -5.38487,1.11607 -6.68207,5.59058 -0.34687,1.19648 -1.08914,3.17282 -1.64947,4.39187 -0.56034,1.21905 -1.22058,2.82443 -1.4672,3.56751 -0.56055,1.68891 -0.99069,2.08638 -4.25148,3.92847 -2.87072,1.62175 -3.65526,2.21243 -7.86105,5.91866 -3.25871,2.87165 -3.9079,3.98191 -5.21488,8.9187 -0.42254,1.59602 -1.38777,4.92592 -2.14497,7.39978 -0.757204,2.47385 -2.073944,7.2194 -2.926094,10.54566 -0.85214,3.32627 -1.59607,6.09447 -1.65317,6.15157 -0.0571,0.0571 -0.18319,0.0244 -0.2802,-0.0726 z m 61.617824,-84.9763 c 2.18179,-1.0534 5.51915,-2.15772 8.08646,-2.67579 1.83481,-0.37025 2.63411,-0.88259 2.1471,-1.37625 -0.7038,-0.7134 -2.6036,-1.01018 -6.49212,-1.01417 l -3.91748,-0.004 -0.49245,-1.12448 c -0.27084,-0.61847 -0.81228,-2.31511 -1.20319,-3.77032 -0.73657,-2.74194 -2.39849,-6.41766 -3.39217,-7.50255 -0.9549,-1.04254 -1.63147,-1.15779 -3.98217,-0.67834 -1.65975,0.33852 -2.85002,0.39651 -5.31678,0.25903 -3.29871,-0.18385 -4.92127,-0.56262 -7.11305,-1.66048 -0.83369,-0.4176 -1.37967,-0.55488 -1.54586,-0.38869 -0.35697,0.35697 0.12681,1.18484 1.03812,1.77648 0.40609,0.26364 0.89504,0.69881 1.08656,0.96705 0.71537,1.00196 4.63418,2.43795 8.83605,3.23785 1.12229,0.21365 2.27983,0.51653 2.57233,0.67307 0.98079,0.5249 3.00749,5.41036 4.28452,10.32804 0.61827,2.38085 1.73774,3.96875 2.79798,3.96875 0.27691,0 1.44968,-0.45684 2.60615,-1.01519 z m 29.74568,-0.0431 c 0.11845,0 0.582,-0.57135 1.0301,-1.26965 0.57711,-0.89936 0.89262,-1.81884 1.08179,-3.15268 0.29062,-2.0491 1.69363,-6.24279 2.69155,-8.04519 0.81185,-1.46631 1.66631,-1.93529 4.72751,-2.59477 1.48146,-0.31915 3.38387,-0.96982 4.63317,-1.58465 2.44472,-1.20315 5.46261,-3.76231 5.00115,-4.24095 -0.21217,-0.22007 -0.62829,-0.1228 -1.5875,0.37111 -1.57626,0.81164 -4.6164,1.60724 -7.7195,2.02019 -1.78128,0.23704 -2.783,0.23267 -4.42386,-0.0193 -3.37511,-0.51832 -3.52476,-0.46115 -4.8353,1.84716 -1.70619,3.00519 -2.70218,5.61533 -3.11219,8.15595 -0.49721,3.08101 -0.67861,3.22052 -4.19101,3.22313 -3.14723,0.002 -5.86829,0.39152 -6.74813,0.96514 -0.56687,0.36957 -0.58699,0.44693 -0.21339,0.82053 0.22687,0.22687 1.10383,0.50859 1.94879,0.62603 0.84497,0.11744 2.99451,0.75443 4.77674,1.41554 3.12034,1.15745 5.63363,1.77392 6.37235,1.56303 0.19381,-0.0553 0.44928,-0.1006 0.56773,-0.1006 z m -45.50239,83.46698 c -5.18111,-1.60604 -7.54918,-6.28797 -5.5312,-10.93578 0.83764,-1.92924 3.58915,-5.59162 4.20093,-5.59162 0.14148,0 0.5137,0.59618 0.82716,1.32484 0.95787,2.22663 3.38885,3.87223 6.70374,4.53795 2.01146,0.40396 3.47684,0.1201 9.74782,-1.88822 3.56076,-1.14035 6.13127,-1.77881 9.07354,-2.25367 4.72725,-0.76295 6.95492,-0.82123 9.37385,-0.24523 0.94588,0.22523 3.86291,0.87647 6.48229,1.4472 2.61937,0.57072 5.65547,1.28472 6.74687,1.58665 2.80656,0.77643 6.33551,0.78281 8.07217,0.0146 1.92441,-0.85126 2.88587,-1.69214 4.12427,-3.60705 0.61424,-0.94979 1.1897,-1.69352 1.27879,-1.65272 0.0891,0.0408 0.95258,0.92143 1.91887,1.95695 2.2815,2.44498 2.91278,3.69705 3.06887,6.08674 0.17782,2.72225 -0.41432,4.31897 -2.30156,6.20621 -4.22266,4.22266 -9.65818,3.52158 -22.46218,-2.89721 -8.16874,-4.09509 -10.5284,-4.63425 -14.60131,-3.33627 -2.97578,0.94834 -5.08206,1.91788 -8.59896,3.95819 -3.25407,1.88782 -8.8891,4.34798 -11.81857,5.15977 -2.2132,0.61331 -4.58572,0.66173 -6.30539,0.12866 z m 6.13846,-15.38219 c -2.80338,-1.38161 -4.2668,-5.65151 -3.38224,-9.86851 0.71679,-3.41712 2.19755,-5.65418 5.41564,-8.18166 1.37791,-1.0822 1.4435,-1.01529 1.89115,1.92918 0.23593,1.55187 0.71988,3.00996 1.75338,5.28279 2.48507,5.46511 2.7036,7.21961 1.12336,9.01939 -1.72068,1.95975 -4.82879,2.79092 -6.80129,1.81881 z m 42.57233,-0.90868 c -1.12364,-0.56149 -1.86044,-1.14799 -2.32605,-1.85158 -0.61499,-0.92932 -0.66944,-1.21728 -0.55813,-2.95176 0.10267,-1.59981 0.38141,-2.52018 1.66286,-5.49061 1.4932,-3.46125 1.64856,-4.09217 1.97097,-8.00394 0.0371,-0.45064 2.07813,0.699 3.2036,1.8045 3.34681,3.28745 5.0452,9.15339 3.83253,13.23689 -0.65373,2.20132 -3.06947,4.0783 -5.24894,4.0783 -0.49075,0 -1.63233,-0.36981 -2.53684,-0.8218 z m -31.24829,-0.97177 c 0,-0.51347 1.59428,-3.92069 1.9365,-4.1386 0.28123,-0.17907 0.81349,0.13113 2.00859,1.1706 l 1.62599,1.41424 0.72019,-0.52512 c 0.39611,-0.28881 0.97032,-1.03904 1.27603,-1.66716 0.47951,-0.98521 1.32511,-1.84568 1.53525,-1.56224 0.0369,0.0497 0.38563,0.51903 0.77505,1.04291 0.38942,0.52389 1.19863,1.17375 1.79825,1.44415 l 1.09021,0.49161 1.28147,-1.44414 c 0.7048,-0.79427 1.28525,-1.53343 1.28988,-1.64257 0.005,-0.10914 0.15725,-0.1967 0.33916,-0.19456 0.1819,0.002 0.62992,0.62721 0.9956,1.38906 0.47248,0.98436 0.94849,1.53758 1.64501,1.91182 l 0.98014,0.52664 1.28139,-1.38653 c 0.70476,-0.7626 1.47119,-1.38654 1.70316,-1.38654 0.48028,0 1.9962,2.52626 2.23629,3.72674 l 0.15849,0.79243 -2.87947,-0.16531 c -1.58371,-0.0909 -4.07009,-0.27055 -5.5253,-0.39917 -2.6065,-0.23038 -7.61864,-0.004 -12.18457,0.54942 -2.56896,0.31158 -4.08731,0.33102 -4.08731,0.0523 z m -26.4569,-44.66788 c -2.62307,-0.95612 -4.84821,-3.07721 -6.18256,-5.89344 -0.72814,-1.53677 -0.83032,-2.02921 -0.83032,-4.0014 0,-1.88645 0.11429,-2.49282 0.7091,-3.76186 1.02426,-2.18532 2.8433,-4.03354 4.39306,-4.46353 1.36746,-0.37941 2.38198,-0.35294 2.89834,0.0756 0.53005,0.4399 0.41758,0.57387 -1.04519,1.24493 -1.95683,0.8977 -3.962,2.99176 -4.66566,4.87247 -1.16628,3.11714 -0.48336,5.83055 2.06812,8.21715 1.68451,1.57567 4.43295,2.95313 5.40537,2.70906 1.1296,-0.28351 1.13795,-0.88115 0.0265,-1.89917 -0.93485,-0.85629 -0.98645,-0.98464 -0.85713,-2.13195 0.1893,-1.67944 1.13028,-2.61496 2.59169,-2.57664 1.12538,0.0295 2.21187,0.77905 2.51538,1.7353 0.0869,0.27393 -0.0486,1.15508 -0.30116,1.9581 -0.42238,1.34286 -0.42501,1.49426 -0.0327,1.88652 0.39227,0.39226 0.52827,0.36371 1.69477,-0.35581 1.5561,-0.95983 2.77578,-2.88527 3.42559,-5.40779 0.50278,-1.95174 1.02455,-2.19728 0.8204,-0.38608 -0.32871,2.91635 -2.72507,6.00669 -5.85117,7.54567 -2.11652,1.04195 -4.93785,1.30521 -6.78241,0.63287 z m 70.38415,-1.32315 c -2.66881,-0.71718 -5.01668,-2.49547 -6.10102,-4.62095 -0.50096,-0.98195 -1.05477,-4.4799 -0.70929,-4.4799 0.0835,0 0.28746,0.6535 0.45328,1.45222 0.52919,2.54913 3.51456,6.22069 5.05809,6.22069 0.69645,0 1.12618,-0.91201 0.62551,-1.32753 -0.40279,-0.33428 -0.5295,-2.23097 -0.22495,-3.36733 0.18264,-0.68147 1.62955,-1.22552 2.88112,-1.08332 0.63124,0.0717 0.90798,0.32565 1.38428,1.27018 0.81032,1.60691 0.75182,2.21658 -0.32728,3.41102 -0.91218,1.00967 -0.9167,1.02654 -0.40029,1.49389 0.5025,0.45476 0.59517,0.44996 2.44395,-0.12645 1.55388,-0.48447 2.15612,-0.83973 3.14681,-1.85633 2.37285,-2.4349 3.15079,-6.46015 1.82989,-9.46827 -0.75778,-1.72569 -2.65963,-3.4932 -4.64345,-4.31545 -0.79987,-0.33153 -1.45432,-0.68082 -1.45432,-0.77621 0,-0.48741 1.3863,-0.76181 2.64385,-0.52332 3.57915,0.67877 5.54815,3.30134 5.76856,7.6833 0.19464,3.86962 -1.12486,7.31101 -3.49687,9.12023 -2.04589,1.56047 -5.83177,2.11209 -8.87787,1.29353 z"
       id="path44" />
  </g>
  <g
     inkscape:label="Blue"
     inkscape:groupmode="layer"
     id="g883"
     style="display:none">
    <path
       style="opacity:1;fill:#000000;fill-opacity:0;stroke:#40f8f8;stroke-width:1.32292;stroke-linejoin:round;stroke-miterlimit:4;stroke-dasharray:none;stroke-opacity:1;filter:url(#filter1337)"
       d="m 101.34133,234.41794 c -3.491964,-0.65225 -7.490814,-2.73656 -13.520084,-7.04707 -5.19119,-3.71134 -8.15318,-6.15624 -11.35075,-9.36921 -8.92951,-8.97252 -11.96823,-12.98771 -13.46963,-17.79796 -0.89613,-2.87105 -0.87567,-4.47709 0.0958,-7.5238 0.42978,-1.34781 0.90577,-3.23829 1.05775,-4.20107 0.15199,-0.96278 1.66254,-6.32059 3.35678,-11.90625 1.69425,-5.58566 3.37043,-11.16777 3.72484,-12.4047 1.51847,-5.29955 1.25199,-4.8055 4.06351,-7.53369 1.42861,-1.38626 2.71324,-2.52047 2.85474,-2.52047 0.1415,0 0.42861,-0.0658 0.63803,-0.14611 0.30145,-0.11568 0.4179,0.26364 0.55901,1.82085 0.42846,4.72821 2.1777,8.51694 7.28914,15.78776 3.66474,5.21293 4.07289,5.7103 5.14257,6.26665 0.63484,0.33019 0.8157,0.33696 1.09459,0.041 0.27208,-0.28873 0.0217,-0.91929 -1.34894,-3.39725 -1.61374,-2.91744 -3.28415,-6.85695 -5.13433,-12.10883 -1.15462,-3.27748 -1.05476,-4.1038 0.86333,-7.14322 2.53506,-4.01707 8.08264,-15.44818 9.46802,-19.5094 l 0.72205,-2.11667 1.2853,-0.16014 c 4.821084,-0.60068 6.614294,-1.07214 9.884274,-2.59872 1.81902,-0.8492 3.62736,-1.61808 4.01855,-1.70861 0.6803,-0.15745 0.71842,-0.10989 0.87597,1.0931 0.40177,3.06756 1.38123,4.39256 3.89467,5.26861 1.11897,0.39001 2.19534,0.48701 5.40405,0.48701 3.56875,0 4.0677,-0.0551 4.56406,-0.50403 0.61402,-0.55534 0.71616,-1.08634 0.26286,-1.3665 -0.16194,-0.10008 -1.12459,-0.3955 -2.13924,-0.65649 -1.90906,-0.49106 -2.71359,-0.99323 -2.93252,-1.83041 -0.10571,-0.40425 0.0803,-0.51725 1.0981,-0.6671 0.67396,-0.0992 1.83519,-0.52734 2.5805,-0.95137 0.74532,-0.42404 1.52527,-0.77097 1.73322,-0.77097 0.20795,0 0.64839,0.56554 0.97875,1.25677 1.48703,3.11133 2.22445,4.04649 3.95587,5.01669 1.8224,1.02117 2.1635,1.55277 2.1635,3.37182 0,1.90805 -0.79232,5.50122 -1.47016,6.66719 -1.30915,2.25189 -5.99632,5.10287 -9.24547,5.62358 -1.43118,0.22936 -1.63141,0.20319 -2.03348,-0.26575 -0.70089,-0.81748 -1.09334,-3.28653 -0.92894,-5.84424 0.21166,-3.2928 -0.20359,-3.51231 -3.97907,-2.1034 -2.76953,1.03352 -5.5325,2.83565 -7.81628,5.09813 -2.66506,2.64021 -4.64302,7.06964 -5.09838,11.41729 -0.1513,1.44461 -0.2225,1.56983 -1.26459,2.22398 -3.07768,1.93195 -5.103774,4.30592 -6.957004,8.15148 -1.27319,2.64195 -1.95247,4.95798 -1.95247,6.65704 0,0.61851 0.41552,2.26978 0.92605,3.68014 1.22805,3.39254 1.20157,4.33733 -0.2574,9.18507 -1.94263,6.45484 -2.38573,8.83265 -2.37723,12.75691 0.009,4.12637 0.39862,5.34358 2.62576,8.20208 0.79366,1.01865 3.3771,4.47146 5.740984,7.67292 2.44458,3.31074 5.41709,6.97997 6.89318,8.50883 1.42737,1.47841 2.78537,3.14311 3.01778,3.69935 l 0.42256,1.01134 -1.59557,1.49973 c -1.27757,1.20083 -1.86604,1.55773 -2.95261,1.79076 -1.69842,0.36424 -3.07121,0.3383 -5.43204,-0.10266 z m 68.65938,-0.56626 c -2.67455,-0.51477 -4.77734,-1.8249 -5.43342,-3.38526 -0.32094,-0.7633 -0.27784,-0.84066 1.69838,-3.04763 2.51184,-2.80514 4.12797,-4.94509 9.23834,-12.23264 4.19584,-5.98339 5.74004,-8.75341 6.55202,-11.75311 0.45758,-1.69046 0.46014,-1.91077 0.0485,-4.18674 -1.00534,-5.559 -1.84292,-8.97582 -3.09865,-12.64064 -0.73276,-2.13854 -1.33229,-4.08348 -1.33229,-4.32209 0,-0.2386 0.41672,-1.27971 0.92604,-2.31356 0.85343,-1.73234 0.92604,-2.06914 0.92604,-4.29499 0,-2.82619 -0.42584,-4.47965 -1.87335,-7.2738 -1.69032,-3.26288 -3.72625,-5.4144 -6.5786,-6.95211 -1.60335,-0.86438 -2.0167,-1.64642 -2.89869,-5.48425 -0.31758,-1.38193 -0.9237,-3.22697 -1.34693,-4.1001 -2.25046,-4.64275 -8.54437,-9.45736 -13.16433,-10.07022 -1.23594,-0.16395 -1.37152,-0.1261 -1.7797,0.49686 -0.36129,0.55141 -0.38397,0.78246 -0.12439,1.26749 0.40448,0.75577 0.18197,4.71431 -0.34789,6.1892 -0.54272,1.5107 -1.25266,1.69243 -3.62793,0.92868 -2.55813,-0.82255 -7.12279,-3.83881 -8.33559,-5.50804 -1.36178,-1.87427 -1.75677,-4.17771 -1.2946,-7.5496 0.14975,-1.09253 0.29755,-1.30603 1.38906,-2.00651 1.87467,-1.20307 2.84714,-2.36251 3.65642,-4.35937 0.99961,-2.46651 1.28117,-2.60572 3.18431,-1.5745 0.83848,0.45433 2.09005,0.9066 2.78128,1.00505 0.69122,0.0985 1.25677,0.29003 1.25677,0.42572 0,0.47791 -2.14168,1.79075 -3.42259,2.09804 -1.3698,0.32861 -2.31357,1.08643 -1.99499,1.6019 0.4075,0.65935 2.00214,1.04794 4.2846,1.0441 2.85497,-0.005 5.21599,-0.53767 7.2971,-1.64689 1.83394,-0.97748 2.23844,-1.68284 2.48612,-4.33522 0.10277,-1.10048 0.26415,-1.66707 0.45123,-1.58421 6.80651,3.01474 8.49517,3.54375 12.39223,3.88214 1.77812,0.15439 3.24068,0.30324 3.25012,0.33076 0.55702,1.62317 1.81056,4.33176 2.90213,6.2708 0.77918,1.38414 2.36137,4.47976 3.51597,6.87917 1.99691,4.14985 4.75659,9.08022 5.8865,10.51667 0.75582,0.96086 0.6576,2.3516 -0.38438,5.44305 -0.49873,1.47969 -1.26896,3.88097 -1.71162,5.33618 -0.44265,1.45521 -1.29619,3.47927 -1.89674,4.49792 -2.35106,3.98782 -2.80434,5.27159 -1.97384,5.59029 0.61761,0.237 2.77542,-2.26791 5.72734,-6.64863 4.3817,-6.50255 7.11165,-12.80486 7.11165,-16.41782 0,-0.93837 0.0893,-1.70502 0.19844,-1.70365 0.10914,0.001 0.80459,0.35015 1.54544,0.77508 1.76609,1.01297 4.67526,4.1663 5.19159,5.62732 0.22076,0.62466 0.93928,2.74308 1.59671,4.70761 0.65743,1.96454 2.20755,6.48891 3.4447,10.05417 1.23716,3.56526 2.39189,7.19667 2.56607,8.06979 0.17418,0.87313 0.77315,2.95672 1.33106,4.63021 1.34825,4.04425 1.85307,6.62843 1.85307,9.48598 0,4.71872 -1.1643,6.8556 -7.88279,14.46753 -12.83097,14.53727 -24.70326,23.47441 -31.62457,23.80612 -1.04496,0.0501 -2.19758,0.0338 -2.56138,-0.0362 z m -49.55183,-1.71421 c -2.26684,-0.52449 -4.40539,-2.23531 -8.61418,-6.89124 -3.57323,-3.95285 -5.78999,-6.87845 -7.08634,-9.35231 -0.5338,-1.01864 -1.78665,-3.22547 -2.78413,-4.90405 -0.99747,-1.67858 -2.051694,-3.72944 -2.342724,-4.55745 -1.08539,-3.08812 -0.54971,-6.82886 1.979294,-13.82183 1.58868,-4.39287 1.50674,-4.25279 2.41989,-4.13657 1.93519,0.2463 6.97095,0.12255 8.30085,-0.20399 2.11853,-0.52018 5.24861,-2.07801 8.86354,-4.41138 6.50929,-4.20161 11.6502,-7.25997 12.94866,-7.70324 3.61811,-1.23517 7.35253,0.027 15.31216,5.17534 4.05979,2.62588 7.93681,4.57407 11.42652,5.7418 3.58024,1.19803 4.55791,1.3011 7.48408,0.78904 1.35127,-0.23646 2.578,-0.35505 2.72608,-0.26353 0.7706,0.47625 3.84947,9.64206 4.46533,13.2933 0.36133,2.14222 0.16318,3.42981 -0.94907,6.1671 -1.01241,2.49155 -6.07466,10.95562 -9.35677,15.64448 -2.11834,3.0263 -6.22195,7.16744 -8.32837,8.40452 -1.41683,0.83211 -1.77474,0.92605 -3.52821,0.92605 -1.79851,0 -2.00025,-0.0568 -2.57438,-0.72422 l -0.62294,-0.72421 0.93904,-1.39245 c 1.70885,-2.534 4.85058,-9.34874 4.85058,-10.52144 0,-0.25493 -0.16052,-0.59673 -0.35671,-0.75956 -0.46734,-0.38785 -0.74682,-0.0511 -2.68943,3.23997 -2.09458,3.54862 -4.77018,6.94807 -6.54834,8.31991 -1.35461,1.04507 -1.71751,1.18104 -4.47268,1.67574 -3.03193,0.54439 -4.12244,0.54425 -8.55777,-0.001 -3.6397,-0.44755 -5.07275,-1.6506 -9.68288,-8.12882 -1.90785,-2.681 -3.56028,-4.87449 -3.67206,-4.87449 -0.11179,0 -0.35461,0.18237 -0.5396,0.40527 -0.26116,0.31469 -0.26966,0.62785 -0.038,1.40107 0.43864,1.46405 2.78634,6.16721 3.93929,7.8916 0.55026,0.82299 1.2082,1.80537 1.4621,2.18306 0.2539,0.37769 0.46225,0.84161 0.46302,1.03094 0.003,0.78015 -3.12064,1.47951 -4.83585,1.08265 z M 61.168766,184.09983 c -0.097,-0.097 -0.17639,-0.37583 -0.17639,-0.6196 0,-0.24376 -0.53792,-2.35477 -1.19538,-4.69112 -1.64505,-5.84584 -7.27688,-19.5609 -10.94733,-26.65977 -1.99082,-3.85035 -2.41075,-5.41598 -2.40255,-8.95755 0.0143,-6.16304 0.71878,-9.93707 3.99482,-21.39999 0.57392,-2.00815 0.99314,-2.3572 3.45962,-2.88053 1.53476,-0.32564 3.25846,-1.125 5.50332,-2.55214 2.79168,-1.77477 3.97892,-3.00042 6.37668,-6.58298 4.0368,-6.03151 4.94955,-8.27531 6.06486,-14.909104 0.30583,-1.81901 0.68024,-4.02166 0.83203,-4.89479 0.19854,-1.14203 0.18153,-3.09389 -0.0606,-6.955837 -0.41675,-6.647127 -0.35998,-6.93542 1.60485,-8.14964 1.74288,-1.077058 4.15922,-1.469909 7.65005,-1.243748 1.8406,0.119247 2.34369,0.07069 2.61153,-0.252037 0.27717,-0.333973 0.17727,-0.535379 -0.60723,-1.224174 -0.51643,-0.45344 -1.44168,-1.077796 -2.0561,-1.387457 -1.98184,-0.998836 -4.24431,-2.763212 -6.29009,-4.905308 -2.36007,-2.471174 -3.42521,-3.962627 -4.55667,-6.380432 -0.74146,-1.584423 -0.84893,-2.121972 -0.97576,-4.880607 -0.11406,-2.481091 -0.23582,-3.193246 -0.60982,-3.566703 -0.41584,-0.415242 -0.53237,-0.424518 -1.05833,-0.08424 -0.32507,0.210312 -1.48785,0.818147 -2.58396,1.350743 -5.11539,2.485551 -8.19336,7.25937 -7.87536,12.214407 0.21621,3.369095 1.46673,5.492712 6.26758,10.643549 1.46508,1.571892 2.90176,3.349569 3.19261,3.950396 0.77161,1.593924 1.15076,4.752874 0.8172,6.80853 -0.15005,0.924718 -0.27371,2.313968 -0.27481,3.087208 -0.004,2.99111 -1.89515,10.703714 -3.42418,13.966574 -2.00295,4.2742 -4.4039,7.03847 -7.37488,8.49087 -1.36683,0.6682 -1.7629,0.73461 -4.28419,0.71835 -2.20002,-0.0142 -3.08722,-0.13853 -4.26349,-0.59753 -2.28272,-0.89077 -2.49703,-1.24786 -2.41094,-4.01722 0.0399,-1.28173 -0.10266,-4.57224 -0.31667,-7.31223 -0.3056,-3.91255 -0.58572,-5.748424 -1.30514,-8.553674 -1.11489,-4.34733 -2.00134,-6.333819 -5.19498,-11.641662 -4.01101,-6.666309 -5.47204,-10.372058 -4.93418,-12.51504 0.30949,-1.233093 1.88607,-2.695556 3.93629,-3.65135 10.44534,-4.869532 13.79072,-7.144686 16.03814,-10.907376 1.53163,-2.564294 2.15928,-4.467717 2.40464,-7.292348 0.33251,-3.82806 1.22296,-5.640106 3.28999,-6.695056 2.61717,-1.335725 6.71258,-0.761251 15.77509,2.212816 4.86918,1.597933 12.09845,5.217356 15.50055,7.760539 2.36427,1.767371 4.27995,2.742589 5.79551,2.950318 1.06446,0.145902 1.32798,0.0635 2.60119,-0.813395 2.100644,-1.446771 4.251024,-2.039104 7.985034,-2.199526 7.1771,-0.308343 14.71108,1.830326 20.96824,5.952254 5.79513,3.817554 8.10172,3.648932 14.53315,-1.062424 2.49939,-1.83094 2.98455,-2.069391 6.74687,-3.316012 2.2296,-0.738767 5.30398,-1.662049 6.83195,-2.051738 2.48875,-0.634727 3.09505,-0.69292 5.82083,-0.558691 3.66129,0.180297 5.26693,0.591402 7.42136,1.900153 3.09183,1.878184 4.32896,1.607428 8.85052,-1.936999 5.2021,-4.077906 10.89375,-6.851626 20.39378,-9.938538 4.26919,-1.387216 7.02479,-1.889448 9.05661,-1.650648 3.39382,0.398878 4.17783,1.592368 5.75174,8.755771 0.89602,4.0781 1.74663,5.679562 4.32512,8.143044 2.72199,2.600573 5.21804,4.094758 10.65627,6.379056 5.67874,2.385322 6.07664,2.592602 6.93496,3.612655 0.53307,0.633516 0.69297,1.111308 0.69297,2.070582 0,2.202767 -0.70472,4.079194 -4.24658,11.307116 -3.80404,7.76297 -4.84678,10.200019 -5.41785,12.662389 -0.38282,1.65069 -0.80412,7.264104 -1.09856,14.637264 l -0.16147,4.04334 -1.72337,0.96377 c -1.46307,0.8182 -2.02677,0.98011 -3.73204,1.07197 -5.82959,0.31401 -11.25509,-4.24797 -13.76911,-11.57764 -1.79673,-5.238374 -3.56686,-14.238479 -3.41027,-17.339279 0.1297,-2.568559 1.15903,-4.550008 4.32809,-8.331557 2.94705,-3.516635 4.46924,-5.929868 5.17917,-8.210891 0.61456,-1.974582 0.63374,-3.151621 0.082,-5.030152 -1.39239,-4.74041 -5.56798,-8.901051 -10.35127,-10.314207 -1.67604,-0.495162 -1.90804,-0.182443 -1.73578,2.339692 0.3139,4.596154 -2.0515,9.620202 -6.67555,14.178669 -1.05097,1.036068 -2.40614,2.181418 -3.01148,2.54522 -3.27629,1.968997 -4.39444,2.804948 -4.39444,3.285381 0,0.474774 0.24568,0.509844 3.83646,0.547669 3.99365,0.04207 6.35056,0.526227 7.90942,1.624766 l 0.63338,0.44635 -0.17488,4.257812 c -0.21892,5.329867 0.0879,8.624313 1.42522,15.301323 1.50042,7.491604 3.01039,10.979084 6.57629,15.188864 2.93345,3.46311 8.06966,6.7431 12.64808,8.07707 l 1.89773,0.55292 0.65795,1.48653 c 1.38034,3.11865 3.88008,12.41529 3.88198,14.43721 5.3e-4,0.58973 0.17707,2.14379 0.39226,3.45348 0.21518,1.30969 0.39333,3.52126 0.39587,4.9146 0.005,2.96387 -0.47459,4.61052 -2.60963,8.95257 -0.74498,1.51507 -1.3545,2.92434 -1.3545,3.13173 0,0.20738 -1.23348,3.31356 -2.74107,6.90262 -2.69878,6.42488 -5.97123,16.50621 -6.38399,19.66695 -0.0887,0.67932 -0.32302,1.36936 -0.52069,1.53341 -0.29068,0.24124 -0.41568,0.0359 -0.65371,-1.07405 -0.5795,-2.70211 -3.20534,-11.56048 -4.65566,-15.70605 -0.81238,-2.32209 -1.83963,-5.53678 -2.28278,-7.14375 -0.44316,-1.60698 -1.16788,-3.60649 -1.61049,-4.44336 -1.49759,-2.83157 -6.89558,-7.24618 -12.50474,-10.2267 -3.55233,-1.88758 -3.87335,-2.34818 -5.91892,-8.49234 -1.45533,-4.37129 -2.79153,-6.8226 -4.15381,-7.62033 -1.02841,-0.60223 -1.10505,-0.60699 -7.01888,-0.43633 l -5.97912,0.17255 -3.01672,-0.84702 c -4.15315,-1.16609 -6.25202,-2.18655 -6.70806,-3.26141 -0.19595,-0.46187 -0.56686,-1.34996 -0.82424,-1.97354 -0.57373,-1.39003 -2.11687,-2.82457 -3.91933,-3.64351 -1.50226,-0.68254 -6.26299,-1.43799 -9.10282,-1.44446 -2.5152,-0.006 -2.82689,-0.29223 -1.58229,-1.45437 0.93332,-0.8715 1.09102,-0.92283 2.83489,-0.92283 1.01562,0 3.0712,-0.23875 4.56794,-0.53055 1.49675,-0.29179 3.49527,-0.60339 4.44116,-0.69243 l 1.71979,-0.1619 0.32116,1.36816 c 0.81347,3.4653 3.77304,7.47906 6.92147,9.38689 5.56342,3.37121 12.08257,2.50546 17.36362,-2.30592 2.91097,-2.65208 4.32412,-5.93813 4.34646,-10.10696 0.0215,-4.0035 -1.43005,-8.01243 -3.62306,-10.00655 -2.32819,-2.11705 -2.70778,-2.52272 -2.70778,-2.89381 0,-0.41414 3.98191,-2.37849 5.74477,-2.834004 1.56139,-0.40344 2.31333,-0.15181 4.51001,1.509284 3.30408,2.49847 5.79746,5.58661 8.13859,10.07992 1.92664,3.69776 2.34149,4.23667 2.96062,3.84592 0.26078,-0.16459 0.45625,-0.52178 0.43439,-0.79375 -0.21895,-2.72386 -4.77179,-17.133274 -6.25894,-19.809094 -0.6033,-1.08552 -1.27988,-1.85716 -2.13968,-2.44028 -2.2391,-1.518563 -4.07307,-1.73728 -7.32224,-0.87324 -1.08156,0.28761 -2.34839,0.52574 -2.81518,0.52916 -1.49049,0.0109 -8.65491,1.35282 -9.24105,1.73083 -0.31062,0.20032 -0.99222,1.12859 -1.51467,2.06283 -2.19227,3.92014 -4.4953,6.217594 -9.4623,9.439374 -5.09391,3.3041 -13.23838,6.98028 -17.55393,7.92335 -1.183,0.25852 -2.40017,0.60344 -2.70482,0.76648 -1.26991,0.67964 -2.80845,3.11157 -3.13213,4.95088 -0.34888,1.98249 -0.67634,2.23666 -2.88157,2.23666 h -1.95094 l -0.96661,-2.49468 c -1.41151,-3.64291 -2.04067,-4.28389 -4.77661,-4.86636 -3.55066,-0.75592 -9.04181,-2.81072 -13.53861,-5.06617 -8.52121,-4.27398 -12.72767,-7.59078 -14.76989,-11.646094 -1.266764,-2.51545 -2.401614,-3.01932 -7.417544,-3.29336 -1.45923,-0.0797 -3.95954,-0.38241 -5.55625,-0.67263 -1.59672,-0.29022 -3.49843,-0.52832 -4.22603,-0.52911 -2.7018,-0.003 -5.32486,1.95719 -6.67424,4.9874 -0.36451,0.81856 -1.22465,3.690954 -1.91143,6.383084 -0.68677,2.69214 -1.71218,6.65424 -2.27869,8.80468 -0.7909,3.00225 -0.96327,4.01568 -0.74253,4.36562 0.68657,1.08843 1.49071,0.2341 2.8352,-3.01217 1.61664,-3.90335 7.03883,-11.04118 9.25979,-12.18968 1.63377,-0.84486 6.88585,0.1017 8.71741,1.57109 l 0.73884,0.59275 -1.82333,1.86088 c -2.30845,2.35596 -4.13276,5.86863 -4.57004,8.79949 -0.59525,3.98961 0.95927,8.381 4.08704,11.54556 1.95975,1.98281 3.73364,3.02438 7.03376,4.13002 2.14667,0.71921 2.784194,0.82155 4.624684,0.74248 1.80855,-0.0777 2.45035,-0.24235 4.19983,-1.07737 4.90524,-2.34127 8.1694,-6.17538 8.9833,-10.55186 0.32981,-1.77349 0.35805,-1.78541 2.75266,-1.1617 0.83804,0.21828 2.65955,0.39923 4.04781,0.40212 3.1158,0.006 6.00903,0.4061 6.8288,0.94323 0.63112,0.41353 1.02781,1.08325 0.78528,1.32578 -0.0741,0.0741 -1.30922,0.24896 -2.74466,0.38854 -4.10695,0.39934 -6.69027,0.98354 -8.72876,1.97395 -2.36847,1.15072 -3.38904,2.41807 -4.23558,5.25976 -0.43542,1.46162 -4.35402,3.23479 -9.48842,4.29353 -2.90599,0.59923 -3.3521,0.62815 -5.249144,0.34029 -1.20159,-0.18232 -2.87019,-0.2406 -3.96875,-0.1386 -4.55653,0.42304 -5.38487,1.11607 -6.68207,5.59058 -0.34687,1.19648 -1.08914,3.17282 -1.64947,4.39187 -0.56034,1.21905 -1.22058,2.82443 -1.4672,3.56751 -0.56055,1.68891 -0.99069,2.08638 -4.25148,3.92847 -2.87072,1.62175 -3.65526,2.21243 -7.86104,5.91866 -3.25871,2.87165 -3.9079,3.98191 -5.21488,8.9187 -0.42254,1.59602 -1.38777,4.92592 -2.14497,7.39978 -0.7572,2.47385 -2.07394,7.2194 -2.92609,10.54566 -0.85214,3.32627 -1.59607,6.09447 -1.65317,6.15157 -0.0571,0.0571 -0.18319,0.0244 -0.2802,-0.0726 z m 61.617814,-84.9763 c 2.18179,-1.0534 5.51915,-2.15772 8.08646,-2.67579 1.83481,-0.37025 2.63411,-0.88259 2.1471,-1.37625 -0.7038,-0.713404 -2.6036,-1.010184 -6.49212,-1.014174 l -3.91748,-0.004 -0.49245,-1.12448 c -0.27084,-0.61847 -0.81228,-2.31511 -1.20319,-3.77032 -0.73657,-2.74194 -2.39849,-6.417654 -3.39217,-7.502549 -0.9549,-1.042542 -1.63147,-1.157792 -3.98217,-0.678341 -1.65975,0.338527 -2.85002,0.396515 -5.31678,0.259035 -3.29871,-0.183848 -4.92127,-0.56262 -7.11305,-1.660482 -0.83369,-0.417603 -1.379674,-0.554882 -1.545864,-0.388695 -0.35697,0.356976 0.12681,1.184847 1.038124,1.776484 0.40609,0.263639 0.89504,0.698813 1.08656,0.967052 0.71537,1.001954 4.63418,2.437945 8.83605,3.237849 1.12229,0.213649 2.27983,0.516528 2.57233,0.673066 0.98079,0.524901 3.00749,5.410361 4.28452,10.328045 0.61827,2.38085 1.73774,3.96875 2.79798,3.96875 0.27691,0 1.44968,-0.45684 2.60615,-1.01519 z m 29.74568,-0.0431 c 0.11845,0 0.582,-0.57135 1.0301,-1.26965 0.57711,-0.89936 0.89262,-1.81884 1.08179,-3.152684 0.29062,-2.0491 1.69363,-6.24279 2.69155,-8.04519 0.81185,-1.466303 1.66631,-1.93529 4.72751,-2.594767 1.48146,-0.319153 3.38387,-0.969825 4.63317,-1.584655 2.44472,-1.203148 5.46261,-3.762304 5.00115,-4.240943 -0.21217,-0.220075 -0.62829,-0.122798 -1.5875,0.37111 -1.57626,0.811641 -4.6164,1.607238 -7.7195,2.020186 -1.78128,0.237043 -2.783,0.232667 -4.42386,-0.01932 -3.37511,-0.518318 -3.52476,-0.461147 -4.8353,1.847157 -1.70619,3.005193 -2.70218,5.615332 -3.11219,8.155952 -0.49721,3.08101 -0.67861,3.22052 -4.19101,3.22313 -3.14723,0.002 -5.86829,0.39152 -6.74813,0.96514 -0.56687,0.369574 -0.58699,0.446934 -0.21339,0.820534 0.22687,0.22687 1.10383,0.50859 1.94879,0.62603 0.84497,0.11744 2.99451,0.75443 4.77674,1.41554 3.12034,1.15745 5.63363,1.77392 6.37235,1.56303 0.19381,-0.0553 0.44928,-0.1006 0.56773,-0.1006 z m -45.50239,83.46698 c -5.18111,-1.60604 -7.549184,-6.28797 -5.5312,-10.93578 0.83764,-1.92924 3.58915,-5.59162 4.20093,-5.59162 0.14148,0 0.5137,0.59618 0.82716,1.32484 0.95787,2.22663 3.38885,3.87223 6.70374,4.53795 2.01146,0.40396 3.47684,0.1201 9.74782,-1.88822 3.56076,-1.14035 6.13127,-1.77881 9.07354,-2.25367 4.72725,-0.76295 6.95492,-0.82123 9.37385,-0.24523 0.94588,0.22523 3.86291,0.87647 6.48229,1.4472 2.61937,0.57072 5.65547,1.28472 6.74687,1.58665 2.80656,0.77643 6.33551,0.78281 8.07217,0.0146 1.92441,-0.85126 2.88587,-1.69214 4.12427,-3.60705 0.61424,-0.94979 1.1897,-1.69352 1.27879,-1.65272 0.0891,0.0408 0.95258,0.92143 1.91887,1.95695 2.2815,2.44498 2.91278,3.69705 3.06887,6.08674 0.17782,2.72225 -0.41432,4.31897 -2.30156,6.20621 -4.22266,4.22266 -9.65818,3.52158 -22.46218,-2.89721 -8.16874,-4.09509 -10.5284,-4.63425 -14.60131,-3.33627 -2.97578,0.94834 -5.08206,1.91788 -8.59896,3.95819 -3.25407,1.88782 -8.8891,4.34798 -11.81857,5.15977 -2.2132,0.61331 -4.58572,0.66173 -6.30539,0.12866 z m 6.13846,-15.38219 c -2.80338,-1.38161 -4.2668,-5.65151 -3.38224,-9.86851 0.71679,-3.41712 2.19755,-5.65418 5.41564,-8.18166 1.37791,-1.0822 1.4435,-1.01529 1.89115,1.92918 0.23593,1.55187 0.71988,3.00996 1.75338,5.28279 2.48507,5.46511 2.7036,7.21961 1.12336,9.01939 -1.72068,1.95975 -4.82879,2.79092 -6.80129,1.81881 z m 42.57233,-0.90868 c -1.12364,-0.56149 -1.86044,-1.14799 -2.32605,-1.85158 -0.61499,-0.92932 -0.66944,-1.21728 -0.55813,-2.95176 0.10267,-1.59981 0.38141,-2.52018 1.66286,-5.49061 1.4932,-3.46125 1.64856,-4.09217 1.97097,-8.00394 0.0371,-0.45064 2.07813,0.699 3.2036,1.8045 3.34681,3.28745 5.0452,9.15339 3.83253,13.23689 -0.65373,2.20132 -3.06947,4.0783 -5.24894,4.0783 -0.49075,0 -1.63233,-0.36981 -2.53684,-0.8218 z m -31.24829,-0.97177 c 0,-0.51347 1.59428,-3.92069 1.9365,-4.1386 0.28123,-0.17907 0.81349,0.13113 2.00859,1.1706 l 1.62599,1.41424 0.72019,-0.52512 c 0.39611,-0.28881 0.97032,-1.03904 1.27603,-1.66716 0.47951,-0.98521 1.32511,-1.84568 1.53525,-1.56224 0.0369,0.0497 0.38563,0.51903 0.77505,1.04291 0.38942,0.52389 1.19863,1.17375 1.79825,1.44415 l 1.09021,0.49161 1.28147,-1.44414 c 0.7048,-0.79427 1.28525,-1.53343 1.28988,-1.64257 0.005,-0.10914 0.15725,-0.1967 0.33916,-0.19456 0.1819,0.002 0.62992,0.62721 0.9956,1.38906 0.47248,0.98436 0.94849,1.53758 1.64501,1.91182 l 0.98014,0.52664 1.28139,-1.38653 c 0.70476,-0.7626 1.47119,-1.38654 1.70316,-1.38654 0.48028,0 1.9962,2.52626 2.23629,3.72674 l 0.15849,0.79243 -2.87947,-0.16531 c -1.58371,-0.0909 -4.07009,-0.27055 -5.5253,-0.39917 -2.6065,-0.23038 -7.61864,-0.004 -12.18457,0.54942 -2.56896,0.31158 -4.08731,0.33102 -4.08731,0.0523 z M 98.035466,120.61689 c -2.62307,-0.95612 -4.84821,-3.07721 -6.18256,-5.89344 -0.72814,-1.53677 -0.83032,-2.02921 -0.83032,-4.0014 0,-1.88645 0.11429,-2.49282 0.7091,-3.76186 1.02426,-2.18532 2.8433,-4.03354 4.39306,-4.46353 1.36746,-0.37941 2.38198,-0.35294 2.89834,0.0756 0.53005,0.4399 0.41758,0.57387 -1.04519,1.24493 -1.95683,0.8977 -3.962,2.99176 -4.66566,4.87247 -1.16628,3.11714 -0.48336,5.83055 2.06812,8.21715 1.68451,1.57567 4.43295,2.95313 5.405374,2.70906 1.1296,-0.28351 1.13795,-0.88115 0.0265,-1.89917 -0.934854,-0.85629 -0.986454,-0.98464 -0.857134,-2.13195 0.189304,-1.67944 1.130284,-2.61496 2.591694,-2.57664 1.12538,0.0295 2.21187,0.77905 2.51538,1.7353 0.0869,0.27393 -0.0486,1.15508 -0.30116,1.9581 -0.42238,1.34286 -0.42501,1.49426 -0.0327,1.88652 0.39227,0.39226 0.52827,0.36371 1.69477,-0.35581 1.5561,-0.95983 2.77578,-2.88527 3.42559,-5.40779 0.50278,-1.95174 1.02455,-2.19728 0.8204,-0.38608 -0.32871,2.91635 -2.72507,6.00669 -5.85117,7.54567 -2.11652,1.04195 -4.937854,1.30521 -6.782414,0.63287 z m 70.384154,-1.32315 c -2.66881,-0.71718 -5.01668,-2.49547 -6.10102,-4.62095 -0.50096,-0.98195 -1.05477,-4.4799 -0.70929,-4.4799 0.0835,0 0.28746,0.6535 0.45328,1.45222 0.52919,2.54913 3.51456,6.22069 5.05809,6.22069 0.69645,0 1.12618,-0.91201 0.62551,-1.32753 -0.40279,-0.33428 -0.5295,-2.23097 -0.22495,-3.36733 0.18264,-0.68147 1.62955,-1.22552 2.88112,-1.08332 0.63124,0.0717 0.90798,0.32565 1.38428,1.27018 0.81032,1.60691 0.75182,2.21658 -0.32728,3.41102 -0.91218,1.00967 -0.9167,1.02654 -0.40029,1.49389 0.5025,0.45476 0.59517,0.44996 2.44395,-0.12645 1.55388,-0.48447 2.15612,-0.83973 3.14681,-1.85633 2.37285,-2.4349 3.15079,-6.46015 1.82989,-9.46827 -0.75778,-1.72569 -2.65963,-3.4932 -4.64345,-4.31545 -0.79987,-0.33153 -1.45432,-0.68082 -1.45432,-0.77621 0,-0.48741 1.3863,-0.76181 2.64385,-0.52332 3.57915,0.67877 5.54815,3.30134 5.76856,7.6833 0.19464,3.86962 -1.12486,7.31101 -3.49687,9.12023 -2.04589,1.56047 -5.83177,2.11209 -8.87787,1.29353 z"
       id="path879" />
    <path
       style="fill:none;fill-opacity:0;stroke:#40f8f8;stroke-width:1.32292;stroke-linejoin:round;stroke-miterlimit:4;stroke-dasharray:none;stroke-opacity:1"
       d="m 101.34133,234.41794 c -3.49196,-0.65225 -7.49081,-2.73656 -13.52008,-7.04707 -5.19119,-3.71134 -8.15318,-6.15624 -11.35075,-9.36921 -8.92951,-8.97252 -11.96823,-12.98771 -13.46963,-17.79796 -0.89613,-2.87105 -0.87567,-4.47709 0.0958,-7.5238 0.42978,-1.34781 0.90577,-3.23829 1.05775,-4.20107 0.15199,-0.96278 1.66254,-6.32059 3.35678,-11.90625 1.69425,-5.58566 3.37043,-11.16777 3.72484,-12.4047 1.51847,-5.29955 1.25199,-4.8055 4.06351,-7.53369 1.42861,-1.38626 2.71324,-2.52047 2.85474,-2.52047 0.1415,0 0.42861,-0.0658 0.63803,-0.14611 0.30145,-0.11568 0.4179,0.26364 0.55901,1.82085 0.42846,4.72821 2.1777,8.51694 7.28914,15.78776 3.66474,5.21293 4.07289,5.7103 5.14257,6.26665 0.63484,0.33019 0.8157,0.33696 1.09459,0.041 0.27208,-0.28873 0.0217,-0.91929 -1.34894,-3.39725 -1.61374,-2.91744 -3.28415,-6.85695 -5.13433,-12.10883 -1.15462,-3.27748 -1.05476,-4.1038 0.86333,-7.14322 2.53506,-4.01707 8.08264,-15.44818 9.46802,-19.5094 l 0.72205,-2.11667 1.2853,-0.16014 c 4.82108,-0.60068 6.61429,-1.07214 9.88427,-2.59872 1.81902,-0.8492 3.62736,-1.61808 4.01855,-1.70861 0.6803,-0.15745 0.71842,-0.10989 0.87597,1.0931 0.40177,3.06756 1.38123,4.39256 3.89467,5.26861 1.11897,0.39001 2.19534,0.48701 5.40405,0.48701 3.56875,0 4.0677,-0.0551 4.56406,-0.50403 0.61402,-0.55534 0.71616,-1.08634 0.26286,-1.3665 -0.16194,-0.10008 -1.12459,-0.3955 -2.13924,-0.65649 -1.90906,-0.49106 -2.71359,-0.99323 -2.93252,-1.83041 -0.10571,-0.40425 0.0803,-0.51725 1.0981,-0.6671 0.67396,-0.0992 1.83519,-0.52734 2.5805,-0.95137 0.74532,-0.42404 1.52527,-0.77097 1.73322,-0.77097 0.20795,0 0.64839,0.56554 0.97875,1.25677 1.48703,3.11133 2.22445,4.04649 3.95587,5.01669 1.8224,1.02117 2.1635,1.55277 2.1635,3.37182 0,1.90805 -0.79232,5.50122 -1.47016,6.66719 -1.30915,2.25189 -5.99632,5.10287 -9.24547,5.62358 -1.43118,0.22936 -1.63141,0.20319 -2.03348,-0.26575 -0.70089,-0.81748 -1.09334,-3.28653 -0.92894,-5.84424 0.21166,-3.2928 -0.20359,-3.51231 -3.97907,-2.1034 -2.76953,1.03352 -5.5325,2.83565 -7.81628,5.09813 -2.66506,2.64021 -4.64302,7.06964 -5.09838,11.41729 -0.1513,1.44461 -0.2225,1.56983 -1.26459,2.22398 -3.07768,1.93195 -5.10377,4.30592 -6.957,8.15148 -1.27319,2.64195 -1.95247,4.95798 -1.95247,6.65704 0,0.61851 0.41552,2.26978 0.92605,3.68014 1.22805,3.39254 1.20157,4.33733 -0.2574,9.18507 -1.94263,6.45484 -2.38573,8.83265 -2.37723,12.75691 0.009,4.12637 0.39862,5.34358 2.62576,8.20208 0.79366,1.01865 3.3771,4.47146 5.74098,7.67292 2.44458,3.31074 5.41709,6.97997 6.89318,8.50883 1.42737,1.47841 2.78537,3.14311 3.01778,3.69935 l 0.42256,1.01134 -1.59557,1.49973 c -1.27757,1.20083 -1.86604,1.55773 -2.95261,1.79076 -1.69842,0.36424 -3.07121,0.3383 -5.43204,-0.10266 z m 68.65938,-0.56626 c -2.67455,-0.51477 -4.77734,-1.8249 -5.43342,-3.38526 -0.32094,-0.7633 -0.27784,-0.84066 1.69838,-3.04763 2.51184,-2.80514 4.12797,-4.94509 9.23834,-12.23264 4.19584,-5.98339 5.74004,-8.75341 6.55202,-11.75311 0.45758,-1.69046 0.46014,-1.91077 0.0485,-4.18674 -1.00534,-5.559 -1.84292,-8.97582 -3.09865,-12.64064 -0.73276,-2.13854 -1.33229,-4.08348 -1.33229,-4.32209 0,-0.2386 0.41672,-1.27971 0.92604,-2.31356 0.85343,-1.73234 0.92604,-2.06914 0.92604,-4.29499 0,-2.82619 -0.42584,-4.47965 -1.87335,-7.2738 -1.69032,-3.26288 -3.72625,-5.4144 -6.5786,-6.95211 -1.60335,-0.86438 -2.0167,-1.64642 -2.89869,-5.48425 -0.31758,-1.38193 -0.9237,-3.22697 -1.34693,-4.1001 -2.25046,-4.64275 -8.54437,-9.45736 -13.16433,-10.07022 -1.23594,-0.16395 -1.37152,-0.1261 -1.7797,0.49686 -0.36129,0.55141 -0.38397,0.78246 -0.12439,1.26749 0.40448,0.75577 0.18197,4.71431 -0.34789,6.1892 -0.54272,1.5107 -1.25266,1.69243 -3.62793,0.92868 -2.55813,-0.82255 -7.12279,-3.83881 -8.33559,-5.50804 -1.36178,-1.87427 -1.75677,-4.17771 -1.2946,-7.5496 0.14975,-1.09253 0.29755,-1.30603 1.38906,-2.00651 1.87467,-1.20307 2.84714,-2.36251 3.65642,-4.35937 0.99961,-2.46651 1.28117,-2.60572 3.18431,-1.5745 0.83848,0.45433 2.09005,0.9066 2.78128,1.00505 0.69122,0.0985 1.25677,0.29003 1.25677,0.42572 0,0.47791 -2.14168,1.79075 -3.42259,2.09804 -1.3698,0.32861 -2.31357,1.08643 -1.99499,1.6019 0.4075,0.65935 2.00214,1.04794 4.2846,1.0441 2.85497,-0.005 5.21599,-0.53767 7.2971,-1.64689 1.83394,-0.97748 2.23844,-1.68284 2.48612,-4.33522 0.10277,-1.10048 0.26415,-1.66707 0.45123,-1.58421 6.80651,3.01474 8.49517,3.54375 12.39223,3.88214 1.77812,0.15439 3.24068,0.30324 3.25012,0.33076 0.55702,1.62317 1.81056,4.33176 2.90213,6.2708 0.77918,1.38414 2.36137,4.47976 3.51597,6.87917 1.99691,4.14985 4.75659,9.08022 5.8865,10.51667 0.75582,0.96086 0.6576,2.3516 -0.38438,5.44305 -0.49873,1.47969 -1.26896,3.88097 -1.71162,5.33618 -0.44265,1.45521 -1.29619,3.47927 -1.89674,4.49792 -2.35106,3.98782 -2.80434,5.27159 -1.97384,5.59029 0.61761,0.237 2.77542,-2.26791 5.72734,-6.64863 4.3817,-6.50255 7.11165,-12.80486 7.11165,-16.41782 0,-0.93837 0.0893,-1.70502 0.19844,-1.70365 0.10914,0.001 0.80459,0.35015 1.54544,0.77508 1.76609,1.01297 4.67526,4.1663 5.19159,5.62732 0.22076,0.62466 0.93928,2.74308 1.59671,4.70761 0.65743,1.96454 2.20755,6.48891 3.4447,10.05417 1.23716,3.56526 2.39189,7.19667 2.56607,8.06979 0.17418,0.87313 0.77315,2.95672 1.33106,4.63021 1.34825,4.04425 1.85307,6.62843 1.85307,9.48598 0,4.71872 -1.1643,6.8556 -7.88279,14.46753 -12.83097,14.53727 -24.70326,23.47441 -31.62457,23.80612 -1.04496,0.0501 -2.19758,0.0338 -2.56138,-0.0362 z m -49.55183,-1.71421 c -2.26684,-0.52449 -4.40539,-2.23531 -8.61418,-6.89124 -3.57323,-3.95285 -5.78999,-6.87845 -7.08634,-9.35231 -0.5338,-1.01864 -1.78665,-3.22547 -2.78413,-4.90405 -0.99747,-1.67858 -2.05169,-3.72944 -2.34272,-4.55745 -1.08539,-3.08812 -0.54971,-6.82886 1.97929,-13.82183 1.58868,-4.39287 1.50674,-4.25279 2.41989,-4.13657 1.93519,0.2463 6.97095,0.12255 8.30085,-0.20399 2.11853,-0.52018 5.24861,-2.07801 8.86354,-4.41138 6.50929,-4.20161 11.6502,-7.25997 12.94866,-7.70324 3.61811,-1.23517 7.35253,0.027 15.31216,5.17534 4.05979,2.62588 7.93681,4.57407 11.42652,5.7418 3.58024,1.19803 4.55791,1.3011 7.48408,0.78904 1.35127,-0.23646 2.578,-0.35505 2.72608,-0.26353 0.7706,0.47625 3.84947,9.64206 4.46533,13.2933 0.36133,2.14222 0.16318,3.42981 -0.94907,6.1671 -1.01241,2.49155 -6.07466,10.95562 -9.35677,15.64448 -2.11834,3.0263 -6.22195,7.16744 -8.32837,8.40452 -1.41683,0.83211 -1.77474,0.92605 -3.52821,0.92605 -1.79851,0 -2.00025,-0.0568 -2.57438,-0.72422 l -0.62294,-0.72421 0.93904,-1.39245 c 1.70885,-2.534 4.85058,-9.34874 4.85058,-10.52144 0,-0.25493 -0.16052,-0.59673 -0.35671,-0.75956 -0.46734,-0.38785 -0.74682,-0.0511 -2.68943,3.23997 -2.09458,3.54862 -4.77018,6.94807 -6.54834,8.31991 -1.35461,1.04507 -1.71751,1.18104 -4.47268,1.67574 -3.03193,0.54439 -4.12244,0.54425 -8.55777,-0.001 -3.6397,-0.44755 -5.07275,-1.6506 -9.68288,-8.12882 -1.90785,-2.681 -3.56028,-4.87449 -3.67206,-4.87449 -0.11179,0 -0.35461,0.18237 -0.5396,0.40527 -0.26116,0.31469 -0.26966,0.62785 -0.038,1.40107 0.43864,1.46405 2.78634,6.16721 3.93929,7.8916 0.55026,0.82299 1.2082,1.80537 1.4621,2.18306 0.2539,0.37769 0.46225,0.84161 0.46302,1.03094 0.003,0.78015 -3.12064,1.47951 -4.83585,1.08265 z M 61.16877,184.09983 c -0.097,-0.097 -0.17639,-0.37583 -0.17639,-0.6196 0,-0.24376 -0.53792,-2.35477 -1.19538,-4.69112 -1.64505,-5.84584 -7.27688,-19.5609 -10.94733,-26.65977 -1.99082,-3.85035 -2.41075,-5.41598 -2.40255,-8.95755 0.0143,-6.16304 0.71878,-9.93707 3.99482,-21.39999 0.57392,-2.00815 0.99314,-2.3572 3.45962,-2.88053 1.53476,-0.32564 3.25846,-1.125 5.50332,-2.55214 2.79168,-1.77477 3.97892,-3.00042 6.37668,-6.58298 4.0368,-6.03151 4.94955,-8.27531 6.06486,-14.909104 0.30583,-1.81901 0.68024,-4.02166 0.83203,-4.89479 0.19854,-1.14203 0.18153,-3.09389 -0.0606,-6.95584 -0.41675,-6.64713 -0.35998,-6.93542 1.60485,-8.14964 1.74288,-1.07706 4.15922,-1.46991 7.65005,-1.24375 1.8406,0.11925 2.34369,0.0707 2.61153,-0.25203 0.27717,-0.33398 0.17727,-0.53538 -0.60723,-1.22418 -0.51643,-0.45344 -1.44168,-1.07779 -2.0561,-1.38746 -1.98184,-0.99883 -4.24431,-2.76321 -6.29009,-4.9053 -2.36007,-2.47118 -3.42521,-3.96263 -4.55667,-6.38044 -0.74146,-1.58442 -0.84893,-2.12197 -0.97576,-4.8806 -0.11406,-2.48109 -0.23582,-3.19325 -0.60982,-3.56671 -0.41584,-0.41524 -0.53237,-0.42451 -1.05833,-0.0842 -0.32507,0.21032 -1.48785,0.81815 -2.58396,1.35075 -5.11539,2.48555 -8.19336,7.25937 -7.87536,12.2144 0.21621,3.3691 1.46673,5.49272 6.26758,10.64355 1.46508,1.5719 2.90176,3.34957 3.19261,3.9504 0.77161,1.59392 1.15076,4.75287 0.8172,6.80853 -0.15005,0.92472 -0.27371,2.31397 -0.27481,3.08721 -0.004,2.99111 -1.89515,10.70371 -3.42418,13.966574 -2.00295,4.2742 -4.4039,7.03847 -7.37488,8.49087 -1.36683,0.6682 -1.7629,0.73461 -4.28419,0.71835 -2.20002,-0.0142 -3.08722,-0.13853 -4.26349,-0.59753 -2.28272,-0.89077 -2.49703,-1.24786 -2.41094,-4.01722 0.0399,-1.28173 -0.10266,-4.57224 -0.31667,-7.31223 -0.3056,-3.912554 -0.58572,-5.748424 -1.30514,-8.553674 -1.11489,-4.34733 -2.00134,-6.33382 -5.19498,-11.64166 -4.01101,-6.66631 -5.47204,-10.37206 -4.93418,-12.51504 0.30949,-1.2331 1.88607,-2.69556 3.93629,-3.65135 10.44534,-4.86954 13.79072,-7.14469 16.03814,-10.90738 1.53163,-2.56429 2.15928,-4.46772 2.40464,-7.29235 0.33251,-3.828058 1.22296,-5.640104 3.28999,-6.695054 2.61717,-1.335725 6.71258,-0.761251 15.77509,2.212816 4.86918,1.597933 12.09845,5.217358 15.50055,7.760538 2.36427,1.76737 4.27995,2.74259 5.79551,2.95032 1.06446,0.1459 1.32798,0.0635 2.60119,-0.8134 2.10064,-1.44677 4.25102,-2.0391 7.98503,-2.19952 7.1771,-0.30835 14.71108,1.83032 20.96824,5.95225 5.79513,3.81756 8.10172,3.64893 14.53315,-1.06242 2.49939,-1.83094 2.98455,-2.06939 6.74687,-3.31601 2.2296,-0.73877 5.30398,-1.66205 6.83195,-2.05174 2.48875,-0.63473 3.09505,-0.69292 5.82083,-0.55869 3.66129,0.18029 5.26693,0.5914 7.42136,1.90015 3.09183,1.87818 4.32896,1.60743 8.85052,-1.937 5.2021,-4.077905 10.89375,-6.851625 20.39378,-9.938537 4.26919,-1.387216 7.02479,-1.889448 9.05661,-1.650648 3.39382,0.398878 4.17783,1.592368 5.75174,8.755775 0.89602,4.0781 1.74663,5.67956 4.32512,8.14304 2.72199,2.60057 5.21804,4.09476 10.65627,6.37906 5.67874,2.38532 6.07664,2.5926 6.93496,3.61265 0.53307,0.63352 0.69297,1.11131 0.69297,2.07058 0,2.20277 -0.70472,4.0792 -4.24658,11.30712 -3.80404,7.76297 -4.84678,10.20002 -5.41785,12.66239 -0.38282,1.65069 -0.80412,7.2641 -1.09856,14.637264 l -0.16147,4.04334 -1.72337,0.96377 c -1.46307,0.8182 -2.02677,0.98011 -3.73204,1.07197 -5.82959,0.31401 -11.25509,-4.24797 -13.76911,-11.577644 -1.79673,-5.23837 -3.56686,-14.23848 -3.41027,-17.33928 0.1297,-2.56856 1.15903,-4.55001 4.32809,-8.33155 2.94705,-3.51664 4.46924,-5.92987 5.17917,-8.2109 0.61456,-1.97458 0.63374,-3.15162 0.082,-5.03015 -1.39239,-4.74041 -5.56798,-8.90105 -10.35127,-10.3142 -1.67604,-0.49517 -1.90804,-0.18245 -1.73578,2.33969 0.3139,4.59615 -2.0515,9.6202 -6.67555,14.17867 -1.05097,1.03606 -2.40614,2.18141 -3.01148,2.54522 -3.27629,1.96899 -4.39444,2.80494 -4.39444,3.28538 0,0.47477 0.24568,0.50984 3.83646,0.54767 3.99365,0.0421 6.35056,0.52622 7.90942,1.62476 l 0.63338,0.44635 -0.17488,4.25781 c -0.21892,5.32987 0.0879,8.62432 1.42522,15.30133 1.50042,7.491604 3.01039,10.979084 6.57629,15.188864 2.93345,3.46311 8.06966,6.7431 12.64808,8.07707 l 1.89773,0.55292 0.65795,1.48653 c 1.38034,3.11865 3.88008,12.41529 3.88198,14.43721 5.3e-4,0.58973 0.17707,2.14379 0.39226,3.45348 0.21518,1.30969 0.39333,3.52126 0.39587,4.9146 0.005,2.96387 -0.47459,4.61052 -2.60963,8.95257 -0.74498,1.51507 -1.3545,2.92434 -1.3545,3.13173 0,0.20738 -1.23348,3.31356 -2.74107,6.90262 -2.69878,6.42488 -5.97123,16.50621 -6.38399,19.66695 -0.0887,0.67932 -0.32302,1.36936 -0.52069,1.53341 -0.29068,0.24124 -0.41568,0.0359 -0.65371,-1.07405 -0.5795,-2.70211 -3.20534,-11.56048 -4.65566,-15.70605 -0.81238,-2.32209 -1.83963,-5.53678 -2.28278,-7.14375 -0.44316,-1.60698 -1.16788,-3.60649 -1.61049,-4.44336 -1.49759,-2.83157 -6.89558,-7.24618 -12.50474,-10.2267 -3.55233,-1.88758 -3.87335,-2.34818 -5.91892,-8.49234 -1.45533,-4.37129 -2.79153,-6.8226 -4.15381,-7.62033 -1.02841,-0.60223 -1.10505,-0.60699 -7.01888,-0.43633 l -5.97912,0.17255 -3.01672,-0.84702 c -4.15315,-1.16609 -6.25202,-2.18655 -6.70806,-3.26141 -0.19595,-0.46187 -0.56686,-1.34996 -0.82424,-1.97354 -0.57373,-1.39003 -2.11687,-2.82457 -3.91933,-3.64351 -1.50226,-0.68254 -6.26299,-1.43799 -9.10282,-1.44446 -2.5152,-0.006 -2.82689,-0.29223 -1.58229,-1.45437 0.93332,-0.8715 1.09102,-0.92283 2.83489,-0.92283 1.01562,0 3.0712,-0.23875 4.56794,-0.53055 1.49675,-0.29179 3.49527,-0.60339 4.44116,-0.69243 l 1.71979,-0.1619 0.32116,1.36816 c 0.81347,3.4653 3.77304,7.47906 6.92147,9.38689 5.56342,3.37121 12.08257,2.50546 17.36362,-2.30592 2.91097,-2.65208 4.32412,-5.93813 4.34646,-10.10696 0.0215,-4.0035 -1.43005,-8.01243 -3.62306,-10.00655 -2.32819,-2.117054 -2.70778,-2.522724 -2.70778,-2.893814 0,-0.41414 3.98191,-2.37849 5.74477,-2.834 1.56139,-0.40344 2.31333,-0.15181 4.51001,1.50928 3.30408,2.49847 5.79746,5.586614 8.13859,10.079924 1.92664,3.69776 2.34149,4.23667 2.96062,3.84592 0.26078,-0.16459 0.45625,-0.52178 0.43439,-0.79375 -0.21895,-2.72386 -4.77179,-17.133274 -6.25894,-19.809094 -0.6033,-1.08552 -1.27988,-1.85716 -2.13968,-2.44028 -2.2391,-1.51857 -4.07307,-1.73728 -7.32224,-0.87324 -1.08156,0.28761 -2.34839,0.52574 -2.81518,0.52916 -1.49049,0.0109 -8.65491,1.35282 -9.24105,1.73083 -0.31062,0.20032 -0.99222,1.12859 -1.51467,2.06283 -2.19227,3.92014 -4.4953,6.21759 -9.4623,9.43937 -5.09391,3.304104 -13.23838,6.980284 -17.55393,7.923354 -1.183,0.25852 -2.40017,0.60344 -2.70482,0.76648 -1.26991,0.67964 -2.80845,3.11157 -3.13213,4.95088 -0.34888,1.98249 -0.67634,2.23666 -2.88157,2.23666 h -1.95094 l -0.96661,-2.49468 c -1.41151,-3.64291 -2.04067,-4.28389 -4.77661,-4.86636 -3.55066,-0.75592 -9.04181,-2.81072 -13.53861,-5.06617 -8.52121,-4.273984 -12.72767,-7.590784 -14.76989,-11.646094 -1.26676,-2.51545 -2.40161,-3.01932 -7.41754,-3.29336 -1.45923,-0.0797 -3.95954,-0.38241 -5.55625,-0.67263 -1.59672,-0.29022 -3.49843,-0.52832 -4.22603,-0.52911 -2.7018,-0.003 -5.32486,1.95719 -6.67424,4.9874 -0.36451,0.81856 -1.22465,3.69095 -1.91143,6.38308 -0.68677,2.692144 -1.71218,6.654244 -2.27869,8.804684 -0.7909,3.00225 -0.96327,4.01568 -0.74253,4.36562 0.68657,1.08843 1.49071,0.2341 2.8352,-3.01217 1.61664,-3.90335 7.03883,-11.041184 9.25979,-12.189684 1.63377,-0.84486 6.88585,0.1017 8.71741,1.57109 l 0.73884,0.59275 -1.82333,1.860884 c -2.30845,2.35596 -4.13276,5.86863 -4.57004,8.79949 -0.59525,3.98961 0.95927,8.381 4.08704,11.54556 1.95975,1.98281 3.73364,3.02438 7.03376,4.13002 2.14667,0.71921 2.78419,0.82155 4.62468,0.74248 1.80855,-0.0777 2.45035,-0.24235 4.19983,-1.07737 4.90524,-2.34127 8.1694,-6.17538 8.9833,-10.55186 0.32981,-1.77349 0.35805,-1.78541 2.75266,-1.1617 0.83804,0.21828 2.65955,0.39923 4.04781,0.40212 3.1158,0.006 6.00903,0.4061 6.8288,0.94323 0.63112,0.41353 1.02781,1.08325 0.78528,1.32578 -0.0741,0.0741 -1.30922,0.24896 -2.74466,0.38854 -4.10695,0.39934 -6.69027,0.98354 -8.72876,1.97395 -2.36847,1.15072 -3.38904,2.41807 -4.23558,5.25976 -0.43542,1.46162 -4.35402,3.23479 -9.48842,4.29353 -2.90599,0.59923 -3.3521,0.62815 -5.24914,0.34029 -1.20159,-0.18232 -2.87019,-0.2406 -3.96875,-0.1386 -4.55653,0.42304 -5.38487,1.11607 -6.68207,5.59058 -0.34687,1.19648 -1.08914,3.17282 -1.64947,4.39187 -0.56034,1.21905 -1.22058,2.82443 -1.4672,3.56751 -0.56055,1.68891 -0.99069,2.08638 -4.25148,3.92847 -2.87072,1.62175 -3.65526,2.21243 -7.86104,5.91866 -3.25871,2.87165 -3.9079,3.98191 -5.21488,8.9187 -0.42254,1.59602 -1.38777,4.92592 -2.14497,7.39978 -0.7572,2.47385 -2.07394,7.2194 -2.92609,10.54566 -0.85214,3.32627 -1.59607,6.09447 -1.65317,6.15157 -0.0571,0.0571 -0.18319,0.0244 -0.2802,-0.0726 z m 61.61781,-84.976304 c 2.18179,-1.0534 5.51915,-2.15772 8.08646,-2.67579 1.83481,-0.37025 2.63411,-0.88259 2.1471,-1.37625 -0.7038,-0.7134 -2.6036,-1.01018 -6.49212,-1.01417 l -3.91748,-0.004 -0.49245,-1.12448 c -0.27084,-0.61847 -0.81228,-2.31511 -1.20319,-3.77032 -0.73657,-2.74194 -2.39849,-6.41766 -3.39217,-7.50255 -0.9549,-1.04254 -1.63147,-1.15779 -3.98217,-0.67834 -1.65975,0.33852 -2.85002,0.39651 -5.31678,0.25903 -3.29871,-0.18385 -4.92127,-0.56262 -7.11305,-1.66048 -0.83369,-0.4176 -1.37967,-0.55488 -1.54586,-0.38869 -0.35697,0.35697 0.12681,1.18484 1.03812,1.77648 0.40609,0.26364 0.89504,0.69881 1.08656,0.96705 0.71537,1.00196 4.63418,2.43795 8.83605,3.23785 1.12229,0.21365 2.27983,0.51653 2.57233,0.67307 0.98079,0.5249 3.00749,5.41036 4.28452,10.32804 0.61827,2.38085 1.73774,3.968754 2.79798,3.968754 0.27691,0 1.44968,-0.456844 2.60615,-1.015194 z m 29.74568,-0.0431 c 0.11845,0 0.582,-0.57135 1.0301,-1.26965 0.57711,-0.89936 0.89262,-1.81884 1.08179,-3.15268 0.29062,-2.0491 1.69363,-6.24279 2.69155,-8.04519 0.81185,-1.46631 1.66631,-1.93529 4.72751,-2.59477 1.48146,-0.31915 3.38387,-0.96982 4.63317,-1.58465 2.44472,-1.20315 5.46261,-3.76231 5.00115,-4.24095 -0.21217,-0.22007 -0.62829,-0.1228 -1.5875,0.37111 -1.57626,0.81164 -4.6164,1.60724 -7.7195,2.02019 -1.78128,0.23704 -2.783,0.23267 -4.42386,-0.0193 -3.37511,-0.51832 -3.52476,-0.46115 -4.8353,1.84716 -1.70619,3.00519 -2.70218,5.61533 -3.11219,8.15595 -0.49721,3.08101 -0.67861,3.22052 -4.19101,3.22313 -3.14723,0.002 -5.86829,0.39152 -6.74813,0.96514 -0.56687,0.36957 -0.58699,0.44693 -0.21339,0.82053 0.22687,0.22687 1.10383,0.50859 1.94879,0.62603 0.84497,0.11744 2.99451,0.75443 4.77674,1.41554 3.12034,1.15745 5.63363,1.77392 6.37235,1.56303 0.19381,-0.0553 0.44928,-0.1006 0.56773,-0.1006 z m -45.50239,83.466984 c -5.18111,-1.60604 -7.54918,-6.28797 -5.5312,-10.93578 0.83764,-1.92924 3.58915,-5.59162 4.20093,-5.59162 0.14148,0 0.5137,0.59618 0.82716,1.32484 0.95787,2.22663 3.38885,3.87223 6.70374,4.53795 2.01146,0.40396 3.47684,0.1201 9.74782,-1.88822 3.56076,-1.14035 6.13127,-1.77881 9.07354,-2.25367 4.72725,-0.76295 6.95492,-0.82123 9.37385,-0.24523 0.94588,0.22523 3.86291,0.87647 6.48229,1.4472 2.61937,0.57072 5.65547,1.28472 6.74687,1.58665 2.80656,0.77643 6.33551,0.78281 8.07217,0.0146 1.92441,-0.85126 2.88587,-1.69214 4.12427,-3.60705 0.61424,-0.94979 1.1897,-1.69352 1.27879,-1.65272 0.0891,0.0408 0.95258,0.92143 1.91887,1.95695 2.2815,2.44498 2.91278,3.69705 3.06887,6.08674 0.17782,2.72225 -0.41432,4.31897 -2.30156,6.20621 -4.22266,4.22266 -9.65818,3.52158 -22.46218,-2.89721 -8.16874,-4.09509 -10.5284,-4.63425 -14.60131,-3.33627 -2.97578,0.94834 -5.08206,1.91788 -8.59896,3.95819 -3.25407,1.88782 -8.8891,4.34798 -11.81857,5.15977 -2.2132,0.61331 -4.58572,0.66173 -6.30539,0.12866 z m 6.13846,-15.38219 c -2.80338,-1.38161 -4.2668,-5.65151 -3.38224,-9.86851 0.71679,-3.41712 2.19755,-5.65418 5.41564,-8.18166 1.37791,-1.0822 1.4435,-1.01529 1.89115,1.92918 0.23593,1.55187 0.71988,3.00996 1.75338,5.28279 2.48507,5.46511 2.7036,7.21961 1.12336,9.01939 -1.72068,1.95975 -4.82879,2.79092 -6.80129,1.81881 z m 42.57233,-0.90868 c -1.12364,-0.56149 -1.86044,-1.14799 -2.32605,-1.85158 -0.61499,-0.92932 -0.66944,-1.21728 -0.55813,-2.95176 0.10267,-1.59981 0.38141,-2.52018 1.66286,-5.49061 1.4932,-3.46125 1.64856,-4.09217 1.97097,-8.00394 0.0371,-0.45064 2.07813,0.699 3.2036,1.8045 3.34681,3.28745 5.0452,9.15339 3.83253,13.23689 -0.65373,2.20132 -3.06947,4.0783 -5.24894,4.0783 -0.49075,0 -1.63233,-0.36981 -2.53684,-0.8218 z m -31.24829,-0.97177 c 0,-0.51347 1.59428,-3.92069 1.9365,-4.1386 0.28123,-0.17907 0.81349,0.13113 2.00859,1.1706 l 1.62599,1.41424 0.72019,-0.52512 c 0.39611,-0.28881 0.97032,-1.03904 1.27603,-1.66716 0.47951,-0.98521 1.32511,-1.84568 1.53525,-1.56224 0.0369,0.0497 0.38563,0.51903 0.77505,1.04291 0.38942,0.52389 1.19863,1.17375 1.79825,1.44415 l 1.09021,0.49161 1.28147,-1.44414 c 0.7048,-0.79427 1.28525,-1.53343 1.28988,-1.64257 0.005,-0.10914 0.15725,-0.1967 0.33916,-0.19456 0.1819,0.002 0.62992,0.62721 0.9956,1.38906 0.47248,0.98436 0.94849,1.53758 1.64501,1.91182 l 0.98014,0.52664 1.28139,-1.38653 c 0.70476,-0.7626 1.47119,-1.38654 1.70316,-1.38654 0.48028,0 1.9962,2.52626 2.23629,3.72674 l 0.15849,0.79243 -2.87947,-0.16531 c -1.58371,-0.0909 -4.07009,-0.27055 -5.5253,-0.39917 -2.6065,-0.23038 -7.61864,-0.004 -12.18457,0.54942 -2.56896,0.31158 -4.08731,0.33102 -4.08731,0.0523 z m -26.4569,-44.66788 c -2.62307,-0.95612 -4.84821,-3.07721 -6.18256,-5.89344 -0.72814,-1.53677 -0.83032,-2.02921 -0.83032,-4.0014 0,-1.88645 0.11429,-2.49282 0.7091,-3.76186 1.02426,-2.18532 2.8433,-4.03354 4.39306,-4.46353 1.36746,-0.37941 2.38198,-0.35294 2.89834,0.0756 0.53005,0.4399 0.41758,0.57387 -1.04519,1.24493 -1.95683,0.8977 -3.962,2.99176 -4.66566,4.87247 -1.16628,3.11714 -0.48336,5.83055 2.06812,8.21715 1.68451,1.57567 4.43295,2.95313 5.40537,2.70906 1.1296,-0.28351 1.13795,-0.88115 0.0265,-1.89917 -0.93485,-0.85629 -0.98645,-0.98464 -0.85713,-2.13195 0.1893,-1.67944 1.13028,-2.61496 2.59169,-2.57664 1.12538,0.0295 2.21187,0.77905 2.51538,1.7353 0.0869,0.27393 -0.0486,1.15508 -0.30116,1.9581 -0.42238,1.34286 -0.42501,1.49426 -0.0327,1.88652 0.39227,0.39226 0.52827,0.36371 1.69477,-0.35581 1.5561,-0.95983 2.77578,-2.88527 3.42559,-5.40779 0.50278,-1.95174 1.02455,-2.19728 0.8204,-0.38608 -0.32871,2.91635 -2.72507,6.00669 -5.85117,7.54567 -2.11652,1.04195 -4.93785,1.30521 -6.78241,0.63287 z m 70.38415,-1.32315 c -2.66881,-0.71718 -5.01668,-2.49547 -6.10102,-4.62095 -0.50096,-0.98195 -1.05477,-4.4799 -0.70929,-4.4799 0.0835,0 0.28746,0.6535 0.45328,1.45222 0.52919,2.54913 3.51456,6.22069 5.05809,6.22069 0.69645,0 1.12618,-0.91201 0.62551,-1.32753 -0.40279,-0.33428 -0.5295,-2.23097 -0.22495,-3.36733 0.18264,-0.68147 1.62955,-1.22552 2.88112,-1.08332 0.63124,0.0717 0.90798,0.32565 1.38428,1.27018 0.81032,1.60691 0.75182,2.21658 -0.32728,3.41102 -0.91218,1.00967 -0.9167,1.02654 -0.40029,1.49389 0.5025,0.45476 0.59517,0.44996 2.44395,-0.12645 1.55388,-0.48447 2.15612,-0.83973 3.14681,-1.85633 2.37285,-2.4349 3.15079,-6.46015 1.82989,-9.46827 -0.75778,-1.72569 -2.65963,-3.4932 -4.64345,-4.31545 -0.79987,-0.33153 -1.45432,-0.68082 -1.45432,-0.77621 0,-0.48741 1.3863,-0.76181 2.64385,-0.52332 3.57915,0.67877 5.54815,3.30134 5.76856,7.6833 0.19464,3.86962 -1.12486,7.31101 -3.49687,9.12023 -2.04589,1.56047 -5.83177,2.11209 -8.87787,1.29353 z"
       id="path881" />
  </g>
</svg>
